%TF.GenerationSoftware,KiCad,Pcbnew,9.0.6*%
%TF.CreationDate,2026-04-16T13:25:40-04:00*%
%TF.ProjectId,Lighthouse_v2,4c696768-7468-46f7-9573-655f76322e6b,rev?*%
%TF.SameCoordinates,Original*%
%TF.FileFunction,Legend,Top*%
%TF.FilePolarity,Positive*%
%FSLAX46Y46*%
G04 Gerber Fmt 4.6, Leading zero omitted, Abs format (unit mm)*
G04 Created by KiCad (PCBNEW 9.0.6) date 2026-04-16 13:25:40*
%MOMM*%
%LPD*%
G01*
G04 APERTURE LIST*
G04 Aperture macros list*
%AMRoundRect*
0 Rectangle with rounded corners*
0 $1 Rounding radius*
0 $2 $3 $4 $5 $6 $7 $8 $9 X,Y pos of 4 corners*
0 Add a 4 corners polygon primitive as box body*
4,1,4,$2,$3,$4,$5,$6,$7,$8,$9,$2,$3,0*
0 Add four circle primitives for the rounded corners*
1,1,$1+$1,$2,$3*
1,1,$1+$1,$4,$5*
1,1,$1+$1,$6,$7*
1,1,$1+$1,$8,$9*
0 Add four rect primitives between the rounded corners*
20,1,$1+$1,$2,$3,$4,$5,0*
20,1,$1+$1,$4,$5,$6,$7,0*
20,1,$1+$1,$6,$7,$8,$9,0*
20,1,$1+$1,$8,$9,$2,$3,0*%
G04 Aperture macros list end*
%ADD10C,0.100000*%
%ADD11C,0.000000*%
%ADD12C,0.800000*%
%ADD13C,0.300000*%
%ADD14C,0.200000*%
%ADD15C,0.250000*%
%ADD16C,0.150000*%
%ADD17C,0.120000*%
%ADD18C,0.152400*%
%ADD19C,1.512000*%
%ADD20RoundRect,0.102000X-0.654000X-0.654000X0.654000X-0.654000X0.654000X0.654000X-0.654000X0.654000X0*%
%ADD21C,1.500000*%
%ADD22C,3.000000*%
%ADD23RoundRect,0.249999X-1.250001X1.250001X-1.250001X-1.250001X1.250001X-1.250001X1.250001X1.250001X0*%
%ADD24C,3.450000*%
%ADD25C,1.600000*%
%ADD26R,1.700000X1.700000*%
%ADD27C,1.700000*%
%ADD28R,1.371600X1.371600*%
%ADD29C,1.371600*%
%ADD30C,2.000000*%
%ADD31R,1.600000X1.600000*%
%ADD32C,2.100000*%
G04 APERTURE END LIST*
D10*
X95300800Y-47294800D02*
X105867200Y-47294800D01*
X105867200Y-50292000D01*
X95300800Y-50292000D01*
X95300800Y-47294800D01*
G36*
X95300800Y-47294800D02*
G01*
X105867200Y-47294800D01*
X105867200Y-50292000D01*
X95300800Y-50292000D01*
X95300800Y-47294800D01*
G37*
D11*
G36*
X97649444Y-156228523D02*
G01*
X98355883Y-156244084D01*
X98919435Y-156269985D01*
X99125299Y-156286810D01*
X99268646Y-156306217D01*
X99305609Y-156314029D01*
X99342196Y-156323531D01*
X99378312Y-156334658D01*
X99413861Y-156347350D01*
X99448749Y-156361544D01*
X99482881Y-156377176D01*
X99516161Y-156394185D01*
X99548495Y-156412509D01*
X99579787Y-156432084D01*
X99609943Y-156452848D01*
X99638868Y-156474739D01*
X99666467Y-156497695D01*
X99692644Y-156521652D01*
X99717305Y-156546549D01*
X99740354Y-156572323D01*
X99761697Y-156598912D01*
X99796197Y-156660827D01*
X99828637Y-156734221D01*
X99887220Y-156912289D01*
X99937214Y-157126801D01*
X99978386Y-157371442D01*
X100010504Y-157639897D01*
X100033335Y-157925851D01*
X100046646Y-158222989D01*
X100050206Y-158524996D01*
X100043781Y-158825556D01*
X100027139Y-159118356D01*
X100000047Y-159397079D01*
X99962273Y-159655411D01*
X99913585Y-159887037D01*
X99853749Y-160085642D01*
X99819578Y-160170588D01*
X99782533Y-160244910D01*
X99742585Y-160307820D01*
X99699705Y-160358527D01*
X99676979Y-160379947D01*
X99653522Y-160400477D01*
X99629352Y-160420099D01*
X99604488Y-160438794D01*
X99578947Y-160456544D01*
X99552748Y-160473331D01*
X99525908Y-160489138D01*
X99498447Y-160503945D01*
X99470381Y-160517735D01*
X99441729Y-160530489D01*
X99412509Y-160542189D01*
X99382739Y-160552818D01*
X99352437Y-160562356D01*
X99321621Y-160570787D01*
X99290310Y-160578091D01*
X99258521Y-160584250D01*
X98539681Y-160627784D01*
X97793720Y-160654805D01*
X97051153Y-160667086D01*
X96342499Y-160666396D01*
X95698273Y-160654508D01*
X95148992Y-160633193D01*
X94725175Y-160604222D01*
X94569851Y-160587420D01*
X94457336Y-160569367D01*
X94425519Y-160562416D01*
X94394247Y-160554478D01*
X94363547Y-160545564D01*
X94333445Y-160535685D01*
X94303967Y-160524853D01*
X94275141Y-160513080D01*
X94246992Y-160500377D01*
X94219546Y-160486756D01*
X94192831Y-160472228D01*
X94166872Y-160456806D01*
X94141696Y-160440500D01*
X94117330Y-160423322D01*
X94093799Y-160405284D01*
X94071131Y-160386398D01*
X94049351Y-160366674D01*
X94028486Y-160346125D01*
X94012857Y-160329762D01*
X93997631Y-160312352D01*
X93982807Y-160293887D01*
X93968381Y-160274359D01*
X93954350Y-160253759D01*
X93940710Y-160232081D01*
X93927458Y-160209316D01*
X93914591Y-160185457D01*
X93902106Y-160160494D01*
X93889999Y-160134421D01*
X93878268Y-160107229D01*
X93866908Y-160078910D01*
X93855918Y-160049457D01*
X93845293Y-160018862D01*
X93835030Y-159987116D01*
X93825127Y-159954211D01*
X93801740Y-159852875D01*
X93778524Y-159707675D01*
X93736762Y-159310328D01*
X93734266Y-159266811D01*
X93708148Y-158811466D01*
X93701369Y-158539370D01*
X93700994Y-158260380D01*
X93708060Y-157980659D01*
X93723607Y-157706366D01*
X93744724Y-157485059D01*
X96236632Y-157485059D01*
X96236632Y-159266811D01*
X97145530Y-158801297D01*
X97559878Y-158584963D01*
X97938437Y-158380198D01*
X97107460Y-157928036D01*
X96900290Y-157817380D01*
X96687909Y-157706918D01*
X96467596Y-157596271D01*
X96236632Y-157485059D01*
X93744724Y-157485059D01*
X93748674Y-157443666D01*
X93784298Y-157198718D01*
X93831520Y-156977685D01*
X93891376Y-156786728D01*
X93926368Y-156704454D01*
X93964907Y-156632010D01*
X94007125Y-156570166D01*
X94053151Y-156519692D01*
X94076155Y-156499201D01*
X94099622Y-156479648D01*
X94123549Y-156461035D01*
X94147932Y-156443367D01*
X94172767Y-156426645D01*
X94198050Y-156410875D01*
X94223778Y-156396059D01*
X94249948Y-156382200D01*
X94276554Y-156369303D01*
X94303594Y-156357370D01*
X94331064Y-156346405D01*
X94358961Y-156336411D01*
X94387279Y-156327392D01*
X94416017Y-156319351D01*
X94445170Y-156312291D01*
X94474733Y-156306217D01*
X94618024Y-156286763D01*
X94823838Y-156269909D01*
X95387314Y-156243997D01*
X96093707Y-156228469D01*
X96871568Y-156223315D01*
X97649444Y-156228523D01*
G37*
G36*
X122875964Y-156390110D02*
G01*
X123164600Y-156390110D01*
X123164600Y-160142382D01*
X122875964Y-160142382D01*
X122875964Y-160431018D01*
X117680510Y-160431018D01*
X117680510Y-160142382D01*
X117391873Y-160142382D01*
X117391873Y-159853746D01*
X117391873Y-157544655D01*
X117969146Y-157544655D01*
X117969146Y-159853746D01*
X122587327Y-159853746D01*
X122587327Y-157544655D01*
X122298691Y-157544655D01*
X122298691Y-157833291D01*
X121721418Y-157833291D01*
X121721418Y-158121928D01*
X121144146Y-158121928D01*
X121144146Y-158410564D01*
X120566873Y-158410564D01*
X120566873Y-158699200D01*
X119989600Y-158699200D01*
X119989600Y-158410564D01*
X119412328Y-158410564D01*
X119412328Y-158121928D01*
X118835055Y-158121928D01*
X118835055Y-157833291D01*
X118257782Y-157833291D01*
X118257782Y-157544655D01*
X117969146Y-157544655D01*
X117391873Y-157544655D01*
X117391873Y-156967382D01*
X117391873Y-156678746D01*
X117969146Y-156678746D01*
X117969146Y-156967382D01*
X118546419Y-156967382D01*
X118546419Y-157256019D01*
X119123691Y-157256019D01*
X119123691Y-157544655D01*
X119700964Y-157544655D01*
X119700964Y-157833291D01*
X120855509Y-157833291D01*
X120855509Y-157544655D01*
X121432782Y-157544655D01*
X121432782Y-157256019D01*
X122010055Y-157256019D01*
X122010055Y-156967382D01*
X122587327Y-156967382D01*
X122587327Y-156678746D01*
X117969146Y-156678746D01*
X117391873Y-156678746D01*
X117391873Y-156390110D01*
X117680510Y-156390110D01*
X117680510Y-156101473D01*
X122875964Y-156101473D01*
X122875964Y-156390110D01*
G37*
D12*
X85247895Y-166347066D02*
X88295515Y-166347066D01*
X90200276Y-167489923D02*
X90390753Y-167680400D01*
X90390753Y-167680400D02*
X90200276Y-167870876D01*
X90200276Y-167870876D02*
X90009800Y-167680400D01*
X90009800Y-167680400D02*
X90200276Y-167489923D01*
X90200276Y-167489923D02*
X90200276Y-167870876D01*
X92105038Y-167489923D02*
X92295515Y-167680400D01*
X92295515Y-167680400D02*
X92105038Y-167870876D01*
X92105038Y-167870876D02*
X91914562Y-167680400D01*
X91914562Y-167680400D02*
X92105038Y-167489923D01*
X92105038Y-167489923D02*
X92105038Y-167870876D01*
X94009800Y-166347066D02*
X97057420Y-166347066D01*
X98962181Y-167489923D02*
X99152658Y-167680400D01*
X99152658Y-167680400D02*
X98962181Y-167870876D01*
X98962181Y-167870876D02*
X98771705Y-167680400D01*
X98771705Y-167680400D02*
X98962181Y-167489923D01*
X98962181Y-167489923D02*
X98962181Y-167870876D01*
X100866943Y-167489923D02*
X101057420Y-167680400D01*
X101057420Y-167680400D02*
X100866943Y-167870876D01*
X100866943Y-167870876D02*
X100676467Y-167680400D01*
X100676467Y-167680400D02*
X100866943Y-167489923D01*
X100866943Y-167489923D02*
X100866943Y-167870876D01*
X102771705Y-166347066D02*
X105819325Y-166347066D01*
X107724086Y-166347066D02*
X110771706Y-166347066D01*
X112676467Y-167489923D02*
X112866944Y-167680400D01*
X112866944Y-167680400D02*
X112676467Y-167870876D01*
X112676467Y-167870876D02*
X112485991Y-167680400D01*
X112485991Y-167680400D02*
X112676467Y-167489923D01*
X112676467Y-167489923D02*
X112676467Y-167870876D01*
X114581229Y-167489923D02*
X114771706Y-167680400D01*
X114771706Y-167680400D02*
X114581229Y-167870876D01*
X114581229Y-167870876D02*
X114390753Y-167680400D01*
X114390753Y-167680400D02*
X114581229Y-167489923D01*
X114581229Y-167489923D02*
X114581229Y-167870876D01*
X116485991Y-167489923D02*
X116676468Y-167680400D01*
X116676468Y-167680400D02*
X116485991Y-167870876D01*
X116485991Y-167870876D02*
X116295515Y-167680400D01*
X116295515Y-167680400D02*
X116485991Y-167489923D01*
X116485991Y-167489923D02*
X116485991Y-167870876D01*
X118390753Y-167489923D02*
X118581230Y-167680400D01*
X118581230Y-167680400D02*
X118390753Y-167870876D01*
X118390753Y-167870876D02*
X118200277Y-167680400D01*
X118200277Y-167680400D02*
X118390753Y-167489923D01*
X118390753Y-167489923D02*
X118390753Y-167870876D01*
D11*
G36*
X112460920Y-154841628D02*
G01*
X112622164Y-154854198D01*
X112781063Y-154874897D01*
X112937418Y-154903522D01*
X113091029Y-154939868D01*
X113241697Y-154983730D01*
X113389222Y-155034904D01*
X113533405Y-155093186D01*
X113674046Y-155158372D01*
X113810946Y-155230256D01*
X113943906Y-155308634D01*
X114072725Y-155393302D01*
X114197205Y-155484056D01*
X114317146Y-155580690D01*
X114432349Y-155683001D01*
X114542613Y-155790784D01*
X114647741Y-155903835D01*
X114747531Y-156021949D01*
X114841785Y-156144922D01*
X114930304Y-156272549D01*
X115012887Y-156404627D01*
X115089335Y-156540949D01*
X115159450Y-156681313D01*
X115223030Y-156825513D01*
X115279878Y-156973345D01*
X115329793Y-157124605D01*
X115372576Y-157279088D01*
X115408028Y-157436591D01*
X115435949Y-157596907D01*
X115456139Y-157759833D01*
X115468400Y-157925165D01*
X115472531Y-158092698D01*
X115462018Y-158359635D01*
X115431023Y-158620621D01*
X115380362Y-158874819D01*
X115310849Y-159121392D01*
X115223300Y-159359507D01*
X115118530Y-159588325D01*
X114997355Y-159807012D01*
X114860589Y-160014732D01*
X114709049Y-160210648D01*
X114543549Y-160393925D01*
X114364904Y-160563726D01*
X114173931Y-160719216D01*
X113971444Y-160859560D01*
X113758258Y-160983920D01*
X113535190Y-161091461D01*
X113303053Y-161181347D01*
X113288265Y-161183968D01*
X113274076Y-161185834D01*
X113260479Y-161186971D01*
X113247464Y-161187406D01*
X113235024Y-161187167D01*
X113223149Y-161186281D01*
X113211831Y-161184775D01*
X113201062Y-161182676D01*
X113190833Y-161180012D01*
X113181135Y-161176809D01*
X113171960Y-161173094D01*
X113163299Y-161168896D01*
X113155144Y-161164240D01*
X113147486Y-161159154D01*
X113140317Y-161153666D01*
X113133628Y-161147802D01*
X113127411Y-161141590D01*
X113121657Y-161135057D01*
X113116357Y-161128229D01*
X113111503Y-161121135D01*
X113107087Y-161113801D01*
X113103099Y-161106255D01*
X113099532Y-161098523D01*
X113096377Y-161090633D01*
X113091267Y-161074487D01*
X113087702Y-161058034D01*
X113085613Y-161041492D01*
X113084932Y-161025077D01*
X113086836Y-160701492D01*
X113088740Y-160131643D01*
X113087571Y-160075989D01*
X113084151Y-160022789D01*
X113078612Y-159972033D01*
X113071084Y-159923708D01*
X113061697Y-159877802D01*
X113050582Y-159834302D01*
X113037870Y-159793198D01*
X113023692Y-159754477D01*
X113008178Y-159718126D01*
X112991459Y-159684134D01*
X112973666Y-159652489D01*
X112954929Y-159623179D01*
X112935380Y-159596191D01*
X112915148Y-159571514D01*
X112894364Y-159549136D01*
X112873160Y-159529044D01*
X113005966Y-159511457D01*
X113138472Y-159488162D01*
X113269537Y-159458018D01*
X113398021Y-159419882D01*
X113522782Y-159372610D01*
X113583410Y-159345191D01*
X113642680Y-159315059D01*
X113700449Y-159282073D01*
X113756573Y-159246087D01*
X113810912Y-159206961D01*
X113863322Y-159164551D01*
X113913660Y-159118714D01*
X113961784Y-159069307D01*
X114007551Y-159016188D01*
X114050819Y-158959213D01*
X114091446Y-158898240D01*
X114129287Y-158833126D01*
X114164202Y-158763728D01*
X114196046Y-158689902D01*
X114224679Y-158611507D01*
X114249956Y-158528400D01*
X114271736Y-158440436D01*
X114289875Y-158347474D01*
X114304232Y-158249371D01*
X114314664Y-158145984D01*
X114321027Y-158037170D01*
X114323180Y-157922786D01*
X114321747Y-157856897D01*
X114317489Y-157792534D01*
X114310468Y-157729690D01*
X114300747Y-157668364D01*
X114288387Y-157608548D01*
X114273453Y-157550240D01*
X114256005Y-157493434D01*
X114236106Y-157438126D01*
X114213818Y-157384311D01*
X114189204Y-157331985D01*
X114162326Y-157281143D01*
X114133246Y-157231782D01*
X114102026Y-157183895D01*
X114068730Y-157137479D01*
X114033419Y-157092529D01*
X113996155Y-157049041D01*
X114011396Y-157006815D01*
X114020374Y-156977432D01*
X114029558Y-156942792D01*
X114038423Y-156903090D01*
X114046447Y-156858517D01*
X114053103Y-156809266D01*
X114057870Y-156755532D01*
X114060221Y-156697506D01*
X114059634Y-156635382D01*
X114058074Y-156602844D01*
X114055583Y-156569353D01*
X114052096Y-156534935D01*
X114047546Y-156499612D01*
X114041868Y-156463410D01*
X114034997Y-156426352D01*
X114026867Y-156388463D01*
X114017412Y-156349766D01*
X114006568Y-156310286D01*
X113994268Y-156270047D01*
X113980447Y-156229073D01*
X113965040Y-156187388D01*
X113952424Y-156184460D01*
X113936491Y-156182109D01*
X113913997Y-156180329D01*
X113884834Y-156179994D01*
X113867718Y-156180641D01*
X113848893Y-156181976D01*
X113828347Y-156184108D01*
X113806066Y-156187147D01*
X113782036Y-156191201D01*
X113756245Y-156196380D01*
X113728677Y-156202792D01*
X113699320Y-156210547D01*
X113668161Y-156219753D01*
X113635185Y-156230521D01*
X113600379Y-156242958D01*
X113563730Y-156257174D01*
X113525223Y-156273278D01*
X113484847Y-156291379D01*
X113442586Y-156311586D01*
X113398427Y-156334008D01*
X113352357Y-156358754D01*
X113304363Y-156385934D01*
X113254430Y-156415656D01*
X113202546Y-156448029D01*
X113148696Y-156483163D01*
X113092867Y-156521166D01*
X112996928Y-156495810D01*
X112899525Y-156473802D01*
X112800895Y-156455134D01*
X112701272Y-156439795D01*
X112600889Y-156427778D01*
X112499982Y-156419072D01*
X112398784Y-156413669D01*
X112297531Y-156411560D01*
X112196292Y-156413669D01*
X112095135Y-156419072D01*
X111994290Y-156427778D01*
X111893988Y-156439795D01*
X111794461Y-156455134D01*
X111695938Y-156473802D01*
X111598650Y-156495810D01*
X111502829Y-156521166D01*
X111393031Y-156448029D01*
X111291096Y-156385934D01*
X111196916Y-156334008D01*
X111110384Y-156291379D01*
X111031391Y-156257174D01*
X110959831Y-156230521D01*
X110895596Y-156210547D01*
X110838579Y-156196380D01*
X110788672Y-156187147D01*
X110745768Y-156181976D01*
X110709759Y-156179994D01*
X110680539Y-156180329D01*
X110642031Y-156184460D01*
X110629387Y-156187388D01*
X110600271Y-156270047D01*
X110577224Y-156349766D01*
X110559723Y-156426352D01*
X110547243Y-156499612D01*
X110539263Y-156569353D01*
X110535256Y-156635382D01*
X110534701Y-156697506D01*
X110537073Y-156755532D01*
X110541849Y-156809266D01*
X110548504Y-156858517D01*
X110556516Y-156903090D01*
X110565360Y-156942792D01*
X110583452Y-157006815D01*
X110598589Y-157049041D01*
X110561483Y-157092529D01*
X110526288Y-157137479D01*
X110493072Y-157183895D01*
X110461900Y-157231782D01*
X110432841Y-157281143D01*
X110405959Y-157331985D01*
X110381322Y-157384311D01*
X110358996Y-157438126D01*
X110339047Y-157493434D01*
X110321543Y-157550240D01*
X110306549Y-157608548D01*
X110294132Y-157668364D01*
X110284358Y-157729690D01*
X110277295Y-157792534D01*
X110273008Y-157856897D01*
X110271565Y-157922786D01*
X110273713Y-158036900D01*
X110280063Y-158145484D01*
X110290471Y-158248680D01*
X110304797Y-158346628D01*
X110322897Y-158439469D01*
X110344630Y-158527345D01*
X110369851Y-158610397D01*
X110398421Y-158688766D01*
X110430195Y-158762593D01*
X110465031Y-158832020D01*
X110502788Y-158897187D01*
X110543323Y-158958235D01*
X110586493Y-159015306D01*
X110632156Y-159068541D01*
X110680170Y-159118081D01*
X110730392Y-159164067D01*
X110782680Y-159206640D01*
X110836891Y-159245941D01*
X110892884Y-159282112D01*
X110950515Y-159315294D01*
X111070125Y-159373254D01*
X111194581Y-159420950D01*
X111322746Y-159459512D01*
X111453478Y-159490068D01*
X111585641Y-159513747D01*
X111718094Y-159531680D01*
X111701180Y-159547643D01*
X111684532Y-159565073D01*
X111668217Y-159583977D01*
X111652302Y-159604362D01*
X111636851Y-159626234D01*
X111621932Y-159649599D01*
X111607610Y-159674464D01*
X111593951Y-159700836D01*
X111581021Y-159728722D01*
X111568887Y-159758127D01*
X111557614Y-159789059D01*
X111547268Y-159821524D01*
X111537916Y-159855529D01*
X111529624Y-159891080D01*
X111522457Y-159928184D01*
X111516481Y-159966847D01*
X111479393Y-159982996D01*
X111436438Y-159999537D01*
X111388283Y-160015442D01*
X111335596Y-160029683D01*
X111279042Y-160041231D01*
X111219290Y-160049059D01*
X111188423Y-160051256D01*
X111157006Y-160052138D01*
X111125123Y-160051575D01*
X111092857Y-160049439D01*
X111060292Y-160045602D01*
X111027510Y-160039935D01*
X110994595Y-160032310D01*
X110961631Y-160022597D01*
X110928702Y-160010669D01*
X110895889Y-159996397D01*
X110863277Y-159979653D01*
X110830949Y-159960307D01*
X110798988Y-159938231D01*
X110767479Y-159913298D01*
X110736503Y-159885378D01*
X110706145Y-159854342D01*
X110676488Y-159820063D01*
X110647615Y-159782411D01*
X110619609Y-159741258D01*
X110592555Y-159696476D01*
X110584716Y-159682989D01*
X110574954Y-159667455D01*
X110561331Y-159647237D01*
X110543872Y-159623220D01*
X110522602Y-159596287D01*
X110497547Y-159567320D01*
X110468730Y-159537203D01*
X110452920Y-159521989D01*
X110436178Y-159506819D01*
X110418509Y-159491803D01*
X110399916Y-159477051D01*
X110380401Y-159462674D01*
X110359968Y-159448782D01*
X110338620Y-159435486D01*
X110316360Y-159422896D01*
X110293192Y-159411122D01*
X110269117Y-159400275D01*
X110244140Y-159390465D01*
X110218264Y-159381803D01*
X110191492Y-159374399D01*
X110163826Y-159368363D01*
X110135271Y-159363806D01*
X110105829Y-159360838D01*
X110093089Y-159361053D01*
X110061959Y-159363340D01*
X110042819Y-159366032D01*
X110023067Y-159370166D01*
X110004033Y-159376051D01*
X109995200Y-159379747D01*
X109987044Y-159383995D01*
X109979732Y-159388836D01*
X109973430Y-159394307D01*
X109968304Y-159400446D01*
X109964519Y-159407294D01*
X109962243Y-159414887D01*
X109961641Y-159423264D01*
X109962879Y-159432464D01*
X109966124Y-159442526D01*
X109971540Y-159453488D01*
X109979296Y-159465388D01*
X109989556Y-159478265D01*
X110002487Y-159492158D01*
X110018254Y-159507105D01*
X110037024Y-159523144D01*
X110058964Y-159540315D01*
X110084238Y-159558655D01*
X110093456Y-159563686D01*
X110104382Y-159570363D01*
X110118990Y-159580158D01*
X110136880Y-159593329D01*
X110157657Y-159610135D01*
X110180922Y-159630834D01*
X110193363Y-159642724D01*
X110206277Y-159655684D01*
X110219615Y-159669746D01*
X110233326Y-159684943D01*
X110247360Y-159701307D01*
X110261669Y-159718870D01*
X110276202Y-159737664D01*
X110290910Y-159757722D01*
X110305743Y-159779076D01*
X110320652Y-159801758D01*
X110335585Y-159825800D01*
X110350495Y-159851236D01*
X110365331Y-159878096D01*
X110380043Y-159906414D01*
X110394583Y-159936222D01*
X110408899Y-159967551D01*
X110422942Y-160000435D01*
X110436663Y-160034905D01*
X110446397Y-160059487D01*
X110459685Y-160087229D01*
X110479585Y-160122618D01*
X110506845Y-160163661D01*
X110523468Y-160185682D01*
X110542212Y-160208370D01*
X110563170Y-160231477D01*
X110586435Y-160254753D01*
X110612100Y-160277950D01*
X110640260Y-160300819D01*
X110671008Y-160323111D01*
X110704437Y-160344578D01*
X110740640Y-160364970D01*
X110779712Y-160384039D01*
X110821746Y-160401535D01*
X110866834Y-160417211D01*
X110915072Y-160430817D01*
X110966551Y-160442104D01*
X111021366Y-160450824D01*
X111079611Y-160456727D01*
X111141377Y-160459565D01*
X111206760Y-160459089D01*
X111275853Y-160455050D01*
X111348748Y-160447199D01*
X111425540Y-160435288D01*
X111506322Y-160419068D01*
X111510767Y-161025077D01*
X111510072Y-161041347D01*
X111507947Y-161057748D01*
X111506329Y-161065932D01*
X111504331Y-161074068D01*
X111501945Y-161082130D01*
X111499163Y-161090092D01*
X111495978Y-161097927D01*
X111492382Y-161105608D01*
X111488368Y-161113109D01*
X111483927Y-161120402D01*
X111479053Y-161127461D01*
X111473737Y-161134260D01*
X111467973Y-161140771D01*
X111461752Y-161146969D01*
X111455067Y-161152826D01*
X111447910Y-161158315D01*
X111440274Y-161163411D01*
X111432150Y-161168086D01*
X111423532Y-161172313D01*
X111414412Y-161176067D01*
X111404782Y-161179319D01*
X111394635Y-161182044D01*
X111383962Y-161184216D01*
X111372757Y-161185806D01*
X111361011Y-161186789D01*
X111348718Y-161187137D01*
X111335869Y-161186825D01*
X111322457Y-161185826D01*
X111308474Y-161184112D01*
X111293912Y-161181657D01*
X111176672Y-161139028D01*
X111061598Y-161091873D01*
X110948790Y-161040298D01*
X110838352Y-160984407D01*
X110730386Y-160924306D01*
X110624993Y-160860098D01*
X110522275Y-160791889D01*
X110422336Y-160719783D01*
X110325276Y-160643886D01*
X110231198Y-160564302D01*
X110140204Y-160481135D01*
X110052396Y-160394491D01*
X109967876Y-160304474D01*
X109886747Y-160211190D01*
X109809110Y-160114742D01*
X109735067Y-160015236D01*
X109664721Y-159912776D01*
X109598174Y-159807468D01*
X109535527Y-159699415D01*
X109476883Y-159588723D01*
X109422344Y-159475497D01*
X109372012Y-159359841D01*
X109325989Y-159241860D01*
X109284377Y-159121659D01*
X109247278Y-158999343D01*
X109214794Y-158875016D01*
X109187028Y-158748783D01*
X109164081Y-158620749D01*
X109146056Y-158491019D01*
X109133055Y-158359697D01*
X109125179Y-158226888D01*
X109122531Y-158092698D01*
X109126663Y-157925165D01*
X109138926Y-157759833D01*
X109159121Y-157596907D01*
X109187047Y-157436591D01*
X109222505Y-157279088D01*
X109265296Y-157124605D01*
X109315219Y-156973345D01*
X109372076Y-156825513D01*
X109435666Y-156681313D01*
X109505790Y-156540949D01*
X109582249Y-156404627D01*
X109664842Y-156272549D01*
X109753370Y-156144922D01*
X109847633Y-156021949D01*
X109947432Y-155903835D01*
X110052567Y-155790784D01*
X110162839Y-155683001D01*
X110278047Y-155580690D01*
X110397993Y-155484056D01*
X110522476Y-155393302D01*
X110651297Y-155308634D01*
X110784256Y-155230256D01*
X110921154Y-155158372D01*
X111061791Y-155093186D01*
X111205967Y-155034904D01*
X111353483Y-154983730D01*
X111504138Y-154939868D01*
X111657735Y-154903522D01*
X111814072Y-154874897D01*
X111972950Y-154854198D01*
X112134169Y-154841628D01*
X112297531Y-154837393D01*
X112460920Y-154841628D01*
G37*
G36*
X127896602Y-158396970D02*
G01*
X127972313Y-158402378D01*
X128047013Y-158411289D01*
X128120618Y-158423620D01*
X128193045Y-158439287D01*
X128264208Y-158458208D01*
X128334025Y-158480299D01*
X128402411Y-158505477D01*
X128469282Y-158533659D01*
X128534554Y-158564760D01*
X128598143Y-158598699D01*
X128659965Y-158635391D01*
X128719935Y-158674754D01*
X128777971Y-158716704D01*
X128833988Y-158761158D01*
X128887901Y-158808032D01*
X128897740Y-158817450D01*
X128906992Y-158827248D01*
X128915654Y-158837404D01*
X128923726Y-158847894D01*
X128931207Y-158858694D01*
X128938095Y-158869781D01*
X128944390Y-158881131D01*
X128950090Y-158892721D01*
X128955194Y-158904527D01*
X128959702Y-158916527D01*
X128963611Y-158928695D01*
X128966922Y-158941010D01*
X128969632Y-158953447D01*
X128971740Y-158965983D01*
X128973246Y-158978595D01*
X128974149Y-158991259D01*
X128974447Y-159003951D01*
X128974138Y-159016649D01*
X128973223Y-159029328D01*
X128971700Y-159041965D01*
X128969567Y-159054538D01*
X128966824Y-159067021D01*
X128963470Y-159079392D01*
X128959503Y-159091627D01*
X128954922Y-159103704D01*
X128949726Y-159115597D01*
X128943914Y-159127285D01*
X128937485Y-159138742D01*
X128930438Y-159149947D01*
X128922771Y-159160876D01*
X128914484Y-159171504D01*
X128905576Y-159181808D01*
X128896160Y-159191648D01*
X128886363Y-159200899D01*
X128876209Y-159209560D01*
X128865721Y-159217632D01*
X128854922Y-159225112D01*
X128843836Y-159232000D01*
X128832487Y-159238294D01*
X128820898Y-159243994D01*
X128809092Y-159249097D01*
X128797093Y-159253604D01*
X128784925Y-159257512D01*
X128772610Y-159260822D01*
X128760173Y-159263531D01*
X128747637Y-159265639D01*
X128735025Y-159267144D01*
X128722361Y-159268046D01*
X128709669Y-159268343D01*
X128696972Y-159268035D01*
X128684292Y-159267119D01*
X128671655Y-159265595D01*
X128659083Y-159263463D01*
X128646600Y-159260720D01*
X128634230Y-159257365D01*
X128621995Y-159253399D01*
X128609919Y-159248818D01*
X128598027Y-159243623D01*
X128586340Y-159237812D01*
X128574884Y-159231385D01*
X128563680Y-159224339D01*
X128552754Y-159216674D01*
X128542128Y-159208389D01*
X128531825Y-159199483D01*
X128495834Y-159168186D01*
X128458462Y-159138518D01*
X128419761Y-159110531D01*
X128379784Y-159084280D01*
X128338586Y-159059819D01*
X128296219Y-159037202D01*
X128252736Y-159016483D01*
X128208190Y-158997715D01*
X128162635Y-158980953D01*
X128116125Y-158966251D01*
X128068711Y-158953662D01*
X128020448Y-158943242D01*
X127971389Y-158935043D01*
X127921586Y-158929119D01*
X127871093Y-158925526D01*
X127819964Y-158924316D01*
X127768834Y-158925526D01*
X127718342Y-158929119D01*
X127668539Y-158935043D01*
X127619480Y-158943242D01*
X127571216Y-158953662D01*
X127523803Y-158966251D01*
X127477292Y-158980953D01*
X127431737Y-158997715D01*
X127387192Y-159016483D01*
X127343709Y-159037202D01*
X127301342Y-159059819D01*
X127260143Y-159084280D01*
X127220167Y-159110531D01*
X127181466Y-159138518D01*
X127144093Y-159168186D01*
X127108102Y-159199483D01*
X127097799Y-159208389D01*
X127087171Y-159216674D01*
X127076244Y-159224339D01*
X127065040Y-159231385D01*
X127053583Y-159237812D01*
X127041896Y-159243623D01*
X127030003Y-159248818D01*
X127017927Y-159253399D01*
X127005692Y-159257365D01*
X126993321Y-159260720D01*
X126980838Y-159263463D01*
X126968266Y-159265595D01*
X126955629Y-159267119D01*
X126942950Y-159268035D01*
X126930252Y-159268343D01*
X126917560Y-159268046D01*
X126904896Y-159267144D01*
X126892285Y-159265639D01*
X126879749Y-159263531D01*
X126867312Y-159260822D01*
X126854998Y-159257512D01*
X126842829Y-159253604D01*
X126830831Y-159249097D01*
X126819025Y-159243994D01*
X126807435Y-159238294D01*
X126796086Y-159232000D01*
X126785000Y-159225112D01*
X126774201Y-159217632D01*
X126763713Y-159209560D01*
X126753558Y-159200899D01*
X126743761Y-159191648D01*
X126734344Y-159181808D01*
X126725437Y-159171504D01*
X126717151Y-159160876D01*
X126709486Y-159149947D01*
X126702440Y-159138742D01*
X126696012Y-159127285D01*
X126690201Y-159115597D01*
X126685006Y-159103704D01*
X126680425Y-159091627D01*
X126676458Y-159079392D01*
X126673104Y-159067021D01*
X126670361Y-159054538D01*
X126668229Y-159041965D01*
X126666705Y-159029328D01*
X126665790Y-159016649D01*
X126665482Y-159003951D01*
X126665779Y-158991259D01*
X126666682Y-158978595D01*
X126668188Y-158965983D01*
X126670296Y-158953447D01*
X126673006Y-158941010D01*
X126676316Y-158928695D01*
X126680226Y-158916527D01*
X126684733Y-158904527D01*
X126689838Y-158892721D01*
X126695538Y-158881131D01*
X126701833Y-158869781D01*
X126708722Y-158858694D01*
X126716203Y-158847894D01*
X126724276Y-158837404D01*
X126732939Y-158827248D01*
X126742191Y-158817450D01*
X126752031Y-158808032D01*
X126805945Y-158761158D01*
X126861961Y-158716704D01*
X126919997Y-158674754D01*
X126979967Y-158635391D01*
X127041789Y-158598699D01*
X127105377Y-158564760D01*
X127170649Y-158533659D01*
X127237519Y-158505477D01*
X127305905Y-158480299D01*
X127375721Y-158458208D01*
X127446884Y-158439287D01*
X127519310Y-158423620D01*
X127592915Y-158411289D01*
X127667615Y-158402378D01*
X127743326Y-158396970D01*
X127819964Y-158395149D01*
X127896602Y-158396970D01*
G37*
G36*
X127836225Y-159718410D02*
G01*
X127849662Y-159719432D01*
X127862904Y-159721114D01*
X127875934Y-159723441D01*
X127888734Y-159726395D01*
X127901290Y-159729961D01*
X127913584Y-159734120D01*
X127925599Y-159738858D01*
X127937319Y-159744156D01*
X127948728Y-159749999D01*
X127959807Y-159756370D01*
X127970542Y-159763251D01*
X127980916Y-159770628D01*
X127990911Y-159778483D01*
X128000511Y-159786798D01*
X128009700Y-159795559D01*
X128018460Y-159804748D01*
X128026776Y-159814348D01*
X128034631Y-159824343D01*
X128042007Y-159834716D01*
X128048889Y-159845451D01*
X128055260Y-159856531D01*
X128061103Y-159867940D01*
X128066401Y-159879660D01*
X128071139Y-159891675D01*
X128075298Y-159903969D01*
X128078863Y-159916524D01*
X128081818Y-159929325D01*
X128084145Y-159942355D01*
X128085827Y-159955596D01*
X128086849Y-159969033D01*
X128087193Y-159982649D01*
X128086849Y-159996265D01*
X128085827Y-160009702D01*
X128084145Y-160022943D01*
X128081818Y-160035973D01*
X128078863Y-160048774D01*
X128075298Y-160061330D01*
X128071139Y-160073623D01*
X128066401Y-160085638D01*
X128061103Y-160097359D01*
X128055260Y-160108767D01*
X128048889Y-160119847D01*
X128042007Y-160130582D01*
X128034631Y-160140955D01*
X128026776Y-160150950D01*
X128018460Y-160160550D01*
X128009700Y-160169739D01*
X128000511Y-160178500D01*
X127990911Y-160186816D01*
X127980916Y-160194670D01*
X127970542Y-160202047D01*
X127959807Y-160208929D01*
X127948728Y-160215299D01*
X127937319Y-160221142D01*
X127925599Y-160226441D01*
X127913584Y-160231178D01*
X127901290Y-160235338D01*
X127888734Y-160238903D01*
X127875934Y-160241857D01*
X127862904Y-160244184D01*
X127849662Y-160245866D01*
X127836225Y-160246888D01*
X127822610Y-160247232D01*
X127819964Y-160247232D01*
X127806348Y-160246888D01*
X127792911Y-160245866D01*
X127779669Y-160244184D01*
X127766640Y-160241857D01*
X127753839Y-160238903D01*
X127741283Y-160235338D01*
X127728989Y-160231178D01*
X127716974Y-160226441D01*
X127705254Y-160221142D01*
X127693846Y-160215299D01*
X127682766Y-160208929D01*
X127672031Y-160202047D01*
X127661658Y-160194670D01*
X127651662Y-160186816D01*
X127642062Y-160178500D01*
X127632873Y-160169739D01*
X127624113Y-160160550D01*
X127615797Y-160150950D01*
X127607942Y-160140955D01*
X127600566Y-160130582D01*
X127593684Y-160119847D01*
X127587313Y-160108767D01*
X127581470Y-160097359D01*
X127576172Y-160085638D01*
X127571435Y-160073623D01*
X127567275Y-160061330D01*
X127563710Y-160048774D01*
X127560756Y-160035973D01*
X127558429Y-160022943D01*
X127556746Y-160009702D01*
X127555725Y-159996265D01*
X127555380Y-159982649D01*
X127555725Y-159969033D01*
X127556746Y-159955596D01*
X127558429Y-159942355D01*
X127560756Y-159929325D01*
X127563710Y-159916524D01*
X127567275Y-159903969D01*
X127571435Y-159891675D01*
X127576172Y-159879660D01*
X127581470Y-159867940D01*
X127587313Y-159856531D01*
X127593684Y-159845451D01*
X127600566Y-159834716D01*
X127607942Y-159824343D01*
X127615797Y-159814348D01*
X127624113Y-159804748D01*
X127632873Y-159795559D01*
X127642062Y-159786798D01*
X127651662Y-159778483D01*
X127661658Y-159770628D01*
X127672031Y-159763251D01*
X127682766Y-159756370D01*
X127693846Y-159749999D01*
X127705254Y-159744156D01*
X127716974Y-159738858D01*
X127728989Y-159734120D01*
X127741283Y-159729961D01*
X127753839Y-159726395D01*
X127766640Y-159723441D01*
X127779669Y-159721114D01*
X127792911Y-159719432D01*
X127806348Y-159718410D01*
X127819964Y-159718066D01*
X127822610Y-159718066D01*
X127836225Y-159718410D01*
G37*
G36*
X128022079Y-155754060D02*
G01*
X128221764Y-155768149D01*
X128418803Y-155791370D01*
X128612984Y-155823510D01*
X128804091Y-155864356D01*
X128991912Y-155913695D01*
X129176231Y-155971314D01*
X129356836Y-156037000D01*
X129533511Y-156110539D01*
X129706043Y-156191719D01*
X129874219Y-156280326D01*
X130037823Y-156376148D01*
X130196642Y-156478971D01*
X130350461Y-156588582D01*
X130499068Y-156704768D01*
X130642248Y-156827316D01*
X130652163Y-156836653D01*
X130661493Y-156846376D01*
X130670237Y-156856460D01*
X130678394Y-156866883D01*
X130685962Y-156877622D01*
X130692940Y-156888652D01*
X130699326Y-156899950D01*
X130705120Y-156911493D01*
X130710319Y-156923258D01*
X130714924Y-156935220D01*
X130718931Y-156947356D01*
X130722341Y-156959644D01*
X130725151Y-156972058D01*
X130727361Y-156984577D01*
X130728969Y-156997176D01*
X130729974Y-157009832D01*
X130730374Y-157022522D01*
X130730168Y-157035221D01*
X130729355Y-157047907D01*
X130727934Y-157060556D01*
X130725902Y-157073145D01*
X130723260Y-157085650D01*
X130720006Y-157098047D01*
X130716137Y-157110314D01*
X130711654Y-157122426D01*
X130706554Y-157134361D01*
X130700836Y-157146094D01*
X130694500Y-157157603D01*
X130687543Y-157168863D01*
X130679965Y-157179852D01*
X130671764Y-157190546D01*
X130662938Y-157200921D01*
X130653602Y-157210836D01*
X130643880Y-157220167D01*
X130633796Y-157228912D01*
X130623373Y-157237069D01*
X130612635Y-157244637D01*
X130601606Y-157251615D01*
X130590308Y-157258001D01*
X130578765Y-157263794D01*
X130567001Y-157268994D01*
X130555039Y-157273598D01*
X130542903Y-157277605D01*
X130530616Y-157281014D01*
X130518202Y-157283824D01*
X130505683Y-157286034D01*
X130493084Y-157287641D01*
X130480429Y-157288645D01*
X130467739Y-157289045D01*
X130455040Y-157288839D01*
X130442354Y-157288026D01*
X130429705Y-157286604D01*
X130417117Y-157284573D01*
X130404612Y-157281931D01*
X130392215Y-157278676D01*
X130379949Y-157274808D01*
X130367837Y-157270325D01*
X130355903Y-157265226D01*
X130344170Y-157259509D01*
X130332662Y-157253173D01*
X130321402Y-157246218D01*
X130310413Y-157238640D01*
X130299720Y-157230440D01*
X130289346Y-157221617D01*
X130164015Y-157114340D01*
X130033957Y-157012645D01*
X129899357Y-156916716D01*
X129760399Y-156826739D01*
X129617268Y-156742897D01*
X129470146Y-156665377D01*
X129319218Y-156594362D01*
X129164669Y-156530038D01*
X129006681Y-156472589D01*
X128845440Y-156422201D01*
X128681128Y-156379057D01*
X128513931Y-156343343D01*
X128344032Y-156315244D01*
X128171615Y-156294944D01*
X127996864Y-156282629D01*
X127819964Y-156278483D01*
X127643064Y-156282629D01*
X127468314Y-156294944D01*
X127295897Y-156315244D01*
X127125999Y-156343343D01*
X126958803Y-156379057D01*
X126794492Y-156422201D01*
X126633251Y-156472589D01*
X126475264Y-156530038D01*
X126320715Y-156594362D01*
X126169787Y-156665377D01*
X126022666Y-156742897D01*
X125879534Y-156826739D01*
X125740576Y-156916716D01*
X125605975Y-157012645D01*
X125475917Y-157114340D01*
X125350584Y-157221617D01*
X125340209Y-157230440D01*
X125329516Y-157238640D01*
X125318527Y-157246218D01*
X125307267Y-157253173D01*
X125295758Y-157259509D01*
X125284025Y-157265226D01*
X125272091Y-157270325D01*
X125259978Y-157274808D01*
X125247712Y-157278676D01*
X125235314Y-157281931D01*
X125222809Y-157284573D01*
X125210221Y-157286604D01*
X125197572Y-157288026D01*
X125184886Y-157288839D01*
X125172186Y-157289045D01*
X125159497Y-157288645D01*
X125146840Y-157287641D01*
X125134241Y-157286034D01*
X125121723Y-157283824D01*
X125109308Y-157281014D01*
X125097021Y-157277605D01*
X125084884Y-157273598D01*
X125072922Y-157268994D01*
X125061158Y-157263794D01*
X125049615Y-157258001D01*
X125038317Y-157251615D01*
X125027287Y-157244637D01*
X125016548Y-157237069D01*
X125006125Y-157228912D01*
X124996041Y-157220167D01*
X124986318Y-157210836D01*
X124976982Y-157200921D01*
X124968158Y-157190546D01*
X124959958Y-157179852D01*
X124952381Y-157168863D01*
X124945425Y-157157603D01*
X124939089Y-157146094D01*
X124933372Y-157134361D01*
X124928273Y-157122426D01*
X124923790Y-157110314D01*
X124919922Y-157098047D01*
X124916667Y-157085650D01*
X124914025Y-157073145D01*
X124911994Y-157060556D01*
X124910572Y-157047907D01*
X124909759Y-157035221D01*
X124909553Y-157022522D01*
X124909953Y-157009832D01*
X124910957Y-156997176D01*
X124912564Y-156984577D01*
X124914774Y-156972058D01*
X124917584Y-156959644D01*
X124920993Y-156947356D01*
X124925000Y-156935220D01*
X124929604Y-156923258D01*
X124934804Y-156911493D01*
X124940597Y-156899950D01*
X124946984Y-156888652D01*
X124953961Y-156877622D01*
X124961529Y-156866883D01*
X124969686Y-156856460D01*
X124978431Y-156846376D01*
X124987762Y-156836653D01*
X124997677Y-156827316D01*
X125140858Y-156704768D01*
X125289465Y-156588582D01*
X125443285Y-156478971D01*
X125602104Y-156376148D01*
X125765708Y-156280326D01*
X125933882Y-156191719D01*
X126106414Y-156110539D01*
X126283089Y-156037000D01*
X126463692Y-155971314D01*
X126648011Y-155913695D01*
X126835832Y-155864356D01*
X127026939Y-155823510D01*
X127221120Y-155791370D01*
X127418160Y-155768149D01*
X127617846Y-155754060D01*
X127819964Y-155749316D01*
X128022079Y-155754060D01*
G37*
G36*
X127960483Y-157075569D02*
G01*
X128099294Y-157085477D01*
X128236245Y-157101804D01*
X128371182Y-157124400D01*
X128503953Y-157153111D01*
X128634405Y-157187786D01*
X128762386Y-157228273D01*
X128887743Y-157274421D01*
X129010322Y-157326077D01*
X129129973Y-157383090D01*
X129246540Y-157445307D01*
X129359873Y-157512578D01*
X129469818Y-157584750D01*
X129576223Y-157661671D01*
X129678935Y-157743189D01*
X129777801Y-157829153D01*
X129787640Y-157838569D01*
X129796891Y-157848365D01*
X129805553Y-157858519D01*
X129813624Y-157869008D01*
X129821105Y-157879806D01*
X129827992Y-157890892D01*
X129834286Y-157902241D01*
X129839986Y-157913831D01*
X129845089Y-157925636D01*
X129849596Y-157937635D01*
X129853505Y-157949804D01*
X129856814Y-157962118D01*
X129859524Y-157974555D01*
X129861631Y-157987091D01*
X129863137Y-157999703D01*
X129864039Y-158012367D01*
X129864336Y-158025059D01*
X129864027Y-158037757D01*
X129863111Y-158050436D01*
X129861588Y-158063073D01*
X129859455Y-158075645D01*
X129856712Y-158088128D01*
X129853358Y-158100499D01*
X129849391Y-158112733D01*
X129844811Y-158124809D01*
X129839616Y-158136702D01*
X129833805Y-158148388D01*
X129827377Y-158159845D01*
X129820331Y-158171048D01*
X129812666Y-158181974D01*
X129804381Y-158192601D01*
X129795475Y-158202903D01*
X129786059Y-158212745D01*
X129776263Y-158221998D01*
X129766108Y-158230662D01*
X129755620Y-158238735D01*
X129744822Y-158246217D01*
X129733736Y-158253107D01*
X129722387Y-158259403D01*
X129710797Y-158265103D01*
X129698991Y-158270208D01*
X129686993Y-158274716D01*
X129674824Y-158278626D01*
X129662510Y-158281936D01*
X129650073Y-158284647D01*
X129637537Y-158286755D01*
X129624925Y-158288261D01*
X129612261Y-158289164D01*
X129599569Y-158289462D01*
X129586871Y-158289153D01*
X129574192Y-158288238D01*
X129561555Y-158286715D01*
X129548983Y-158284583D01*
X129536500Y-158281840D01*
X129524129Y-158278486D01*
X129511894Y-158274519D01*
X129499819Y-158269939D01*
X129487926Y-158264744D01*
X129476240Y-158258933D01*
X129464783Y-158252506D01*
X129453580Y-158245460D01*
X129442653Y-158237795D01*
X129432027Y-158229510D01*
X129421725Y-158220604D01*
X129340782Y-158150218D01*
X129256715Y-158083484D01*
X129169646Y-158020526D01*
X129079697Y-157961467D01*
X128986989Y-157906427D01*
X128891644Y-157855531D01*
X128793785Y-157808900D01*
X128693532Y-157766658D01*
X128591007Y-157728926D01*
X128486333Y-157695828D01*
X128379631Y-157667485D01*
X128271023Y-157644021D01*
X128160630Y-157625558D01*
X128048575Y-157612218D01*
X127934979Y-157604124D01*
X127819964Y-157601399D01*
X127704951Y-157604124D01*
X127591357Y-157612218D01*
X127479303Y-157625558D01*
X127368912Y-157644021D01*
X127260304Y-157667485D01*
X127153603Y-157695828D01*
X127048929Y-157728926D01*
X126946405Y-157766658D01*
X126846152Y-157808900D01*
X126748292Y-157855531D01*
X126652947Y-157906427D01*
X126560238Y-157961467D01*
X126470288Y-158020526D01*
X126383218Y-158083484D01*
X126299150Y-158150218D01*
X126218205Y-158220604D01*
X126207902Y-158229510D01*
X126197275Y-158237795D01*
X126186347Y-158245460D01*
X126175143Y-158252506D01*
X126163686Y-158258933D01*
X126151999Y-158264744D01*
X126140106Y-158269939D01*
X126128030Y-158274519D01*
X126115795Y-158278486D01*
X126103424Y-158281840D01*
X126090941Y-158284583D01*
X126078369Y-158286715D01*
X126065732Y-158288238D01*
X126053053Y-158289153D01*
X126040355Y-158289462D01*
X126027663Y-158289164D01*
X126014999Y-158288261D01*
X126002388Y-158286755D01*
X125989852Y-158284647D01*
X125977415Y-158281936D01*
X125965101Y-158278626D01*
X125952932Y-158274716D01*
X125940934Y-158270208D01*
X125929128Y-158265103D01*
X125917538Y-158259403D01*
X125906189Y-158253107D01*
X125895103Y-158246217D01*
X125884304Y-158238735D01*
X125873816Y-158230662D01*
X125863661Y-158221998D01*
X125853864Y-158212745D01*
X125844447Y-158202903D01*
X125835540Y-158192601D01*
X125827254Y-158181974D01*
X125819589Y-158171048D01*
X125812543Y-158159845D01*
X125806115Y-158148388D01*
X125800304Y-158136702D01*
X125795109Y-158124809D01*
X125790529Y-158112733D01*
X125786562Y-158100499D01*
X125783208Y-158088128D01*
X125780465Y-158075645D01*
X125778332Y-158063073D01*
X125776809Y-158050436D01*
X125775894Y-158037757D01*
X125775586Y-158025059D01*
X125775884Y-158012367D01*
X125776786Y-157999703D01*
X125778292Y-157987091D01*
X125780401Y-157974555D01*
X125783111Y-157962118D01*
X125786421Y-157949804D01*
X125790331Y-157937635D01*
X125794838Y-157925636D01*
X125799943Y-157913831D01*
X125805644Y-157902241D01*
X125811939Y-157890892D01*
X125818828Y-157879806D01*
X125826309Y-157869008D01*
X125834382Y-157858519D01*
X125843045Y-157848365D01*
X125852297Y-157838569D01*
X125862137Y-157829153D01*
X125961003Y-157743189D01*
X126063714Y-157661671D01*
X126170118Y-157584750D01*
X126280062Y-157512578D01*
X126393394Y-157445307D01*
X126509960Y-157383090D01*
X126629609Y-157326077D01*
X126752187Y-157274421D01*
X126877542Y-157228273D01*
X127005522Y-157187786D01*
X127135974Y-157153111D01*
X127268744Y-157124400D01*
X127403681Y-157101804D01*
X127540632Y-157085477D01*
X127679443Y-157075569D01*
X127819964Y-157072233D01*
X127960483Y-157075569D01*
G37*
G36*
X106794287Y-155326095D02*
G01*
X106834598Y-155329160D01*
X106874323Y-155334208D01*
X106913412Y-155341189D01*
X106951815Y-155350052D01*
X106989482Y-155360748D01*
X107026363Y-155373227D01*
X107062409Y-155387439D01*
X107097569Y-155403335D01*
X107131794Y-155420864D01*
X107165034Y-155439976D01*
X107197239Y-155460623D01*
X107228359Y-155482753D01*
X107258344Y-155506317D01*
X107287145Y-155531265D01*
X107314711Y-155557547D01*
X107340992Y-155585113D01*
X107365940Y-155613914D01*
X107389504Y-155643899D01*
X107411633Y-155675020D01*
X107432279Y-155707225D01*
X107451391Y-155740464D01*
X107468920Y-155774689D01*
X107484815Y-155809849D01*
X107499027Y-155845895D01*
X107511506Y-155882776D01*
X107522201Y-155920442D01*
X107531064Y-155958844D01*
X107538044Y-155997932D01*
X107543092Y-156037656D01*
X107546157Y-156077966D01*
X107547190Y-156118812D01*
X107547190Y-160352145D01*
X107546157Y-160392992D01*
X107543092Y-160433303D01*
X107538044Y-160473028D01*
X107531064Y-160512117D01*
X107522201Y-160550520D01*
X107511506Y-160588187D01*
X107499027Y-160625068D01*
X107484815Y-160661114D01*
X107468920Y-160696274D01*
X107451391Y-160730499D01*
X107432279Y-160763739D01*
X107411633Y-160795944D01*
X107389504Y-160827064D01*
X107365940Y-160857049D01*
X107340992Y-160885850D01*
X107314711Y-160913416D01*
X107287145Y-160939697D01*
X107258344Y-160964645D01*
X107228359Y-160988209D01*
X107197239Y-161010338D01*
X107165034Y-161030984D01*
X107131794Y-161050096D01*
X107097569Y-161067625D01*
X107062409Y-161083520D01*
X107026363Y-161097732D01*
X106989482Y-161110211D01*
X106951815Y-161120906D01*
X106913412Y-161129769D01*
X106874323Y-161136749D01*
X106834598Y-161141797D01*
X106794287Y-161144862D01*
X106753440Y-161145895D01*
X102520107Y-161145895D01*
X102479261Y-161144862D01*
X102438951Y-161141797D01*
X102399227Y-161136749D01*
X102360139Y-161129769D01*
X102321737Y-161120906D01*
X102284071Y-161110211D01*
X102247190Y-161097732D01*
X102211144Y-161083520D01*
X102175984Y-161067625D01*
X102141759Y-161050096D01*
X102108520Y-161030984D01*
X102076315Y-161010338D01*
X102045194Y-160988209D01*
X102015209Y-160964645D01*
X101986408Y-160939697D01*
X101958842Y-160913416D01*
X101932560Y-160885850D01*
X101907612Y-160857049D01*
X101884048Y-160827064D01*
X101861918Y-160795944D01*
X101841271Y-160763739D01*
X101822159Y-160730499D01*
X101804630Y-160696274D01*
X101788734Y-160661114D01*
X101774522Y-160625068D01*
X101762043Y-160588187D01*
X101751347Y-160550520D01*
X101742484Y-160512117D01*
X101735503Y-160473028D01*
X101730455Y-160433303D01*
X101727390Y-160392992D01*
X101726357Y-160352145D01*
X102255524Y-160352145D01*
X102255868Y-160365761D01*
X102256890Y-160379198D01*
X102258573Y-160392439D01*
X102260899Y-160405469D01*
X102263854Y-160418270D01*
X102267419Y-160430826D01*
X102271579Y-160443119D01*
X102276316Y-160455134D01*
X102281615Y-160466855D01*
X102287458Y-160478263D01*
X102293829Y-160489343D01*
X102300711Y-160500078D01*
X102308088Y-160510451D01*
X102315942Y-160520446D01*
X102324258Y-160530046D01*
X102333019Y-160539235D01*
X102342208Y-160547996D01*
X102351808Y-160556312D01*
X102361803Y-160564166D01*
X102372177Y-160571543D01*
X102382912Y-160578425D01*
X102393992Y-160584795D01*
X102405400Y-160590638D01*
X102417120Y-160595937D01*
X102429135Y-160600674D01*
X102441429Y-160604834D01*
X102453984Y-160608399D01*
X102466785Y-160611353D01*
X102479814Y-160613680D01*
X102493055Y-160615362D01*
X102506492Y-160616384D01*
X102520107Y-160616728D01*
X106753440Y-160616728D01*
X106767056Y-160616384D01*
X106780493Y-160615362D01*
X106793734Y-160613680D01*
X106806764Y-160611353D01*
X106819565Y-160608399D01*
X106832121Y-160604834D01*
X106844414Y-160600674D01*
X106856429Y-160595937D01*
X106868150Y-160590638D01*
X106879558Y-160584795D01*
X106890638Y-160578425D01*
X106901373Y-160571543D01*
X106911746Y-160564166D01*
X106921741Y-160556312D01*
X106931341Y-160547996D01*
X106940530Y-160539235D01*
X106949291Y-160530046D01*
X106957607Y-160520446D01*
X106965461Y-160510451D01*
X106972838Y-160500078D01*
X106979720Y-160489343D01*
X106986090Y-160478263D01*
X106991933Y-160466855D01*
X106997232Y-160455134D01*
X107001969Y-160443119D01*
X107006129Y-160430826D01*
X107009694Y-160418270D01*
X107012648Y-160405469D01*
X107014975Y-160392439D01*
X107016657Y-160379198D01*
X107017679Y-160365761D01*
X107018023Y-160352145D01*
X107018023Y-156118812D01*
X107017679Y-156105197D01*
X107016657Y-156091760D01*
X107014975Y-156078519D01*
X107012648Y-156065490D01*
X107009694Y-156052689D01*
X107006129Y-156040134D01*
X107001969Y-156027840D01*
X106997232Y-156015825D01*
X106991933Y-156004105D01*
X106986090Y-155992697D01*
X106979720Y-155981617D01*
X106972838Y-155970882D01*
X106965461Y-155960508D01*
X106957607Y-155950513D01*
X106949291Y-155940913D01*
X106940530Y-155931724D01*
X106931341Y-155922963D01*
X106921741Y-155914647D01*
X106911746Y-155906793D01*
X106901373Y-155899416D01*
X106890638Y-155892534D01*
X106879558Y-155886163D01*
X106868150Y-155880320D01*
X106856429Y-155875021D01*
X106844414Y-155870284D01*
X106832121Y-155866124D01*
X106819565Y-155862559D01*
X106806764Y-155859604D01*
X106793734Y-155857278D01*
X106780493Y-155855595D01*
X106767056Y-155854573D01*
X106753440Y-155854229D01*
X102520107Y-155854229D01*
X102506492Y-155854573D01*
X102493055Y-155855595D01*
X102479814Y-155857278D01*
X102466785Y-155859604D01*
X102453984Y-155862559D01*
X102441429Y-155866124D01*
X102429135Y-155870284D01*
X102417120Y-155875021D01*
X102405400Y-155880320D01*
X102393992Y-155886163D01*
X102382912Y-155892534D01*
X102372177Y-155899416D01*
X102361803Y-155906793D01*
X102351808Y-155914647D01*
X102342208Y-155922963D01*
X102333019Y-155931724D01*
X102324258Y-155940913D01*
X102315942Y-155950513D01*
X102308088Y-155960508D01*
X102300711Y-155970882D01*
X102293829Y-155981617D01*
X102287458Y-155992697D01*
X102281615Y-156004105D01*
X102276316Y-156015825D01*
X102271579Y-156027840D01*
X102267419Y-156040134D01*
X102263854Y-156052689D01*
X102260899Y-156065490D01*
X102258573Y-156078519D01*
X102256890Y-156091760D01*
X102255868Y-156105197D01*
X102255524Y-156118812D01*
X102255524Y-160352145D01*
X101726357Y-160352145D01*
X101726357Y-156118812D01*
X101727390Y-156077966D01*
X101730455Y-156037656D01*
X101735503Y-155997932D01*
X101742484Y-155958844D01*
X101751347Y-155920442D01*
X101762043Y-155882776D01*
X101774522Y-155845895D01*
X101788734Y-155809849D01*
X101804630Y-155774689D01*
X101822159Y-155740464D01*
X101841271Y-155707225D01*
X101861918Y-155675020D01*
X101884048Y-155643899D01*
X101907612Y-155613914D01*
X101932560Y-155585113D01*
X101958842Y-155557547D01*
X101986408Y-155531265D01*
X102015209Y-155506317D01*
X102045194Y-155482753D01*
X102076315Y-155460623D01*
X102108520Y-155439976D01*
X102141759Y-155420864D01*
X102175984Y-155403335D01*
X102211144Y-155387439D01*
X102247190Y-155373227D01*
X102284071Y-155360748D01*
X102321737Y-155350052D01*
X102360139Y-155341189D01*
X102399227Y-155334208D01*
X102438951Y-155329160D01*
X102479261Y-155326095D01*
X102520107Y-155325062D01*
X106753440Y-155325062D01*
X106794287Y-155326095D01*
G37*
G36*
X103201989Y-156383912D02*
G01*
X103222144Y-156385445D01*
X103242006Y-156387968D01*
X103261550Y-156391459D01*
X103280751Y-156395890D01*
X103299584Y-156401238D01*
X103318025Y-156407478D01*
X103336048Y-156414584D01*
X103353628Y-156422532D01*
X103370740Y-156431296D01*
X103387360Y-156440852D01*
X103403462Y-156451175D01*
X103419022Y-156462240D01*
X103434015Y-156474022D01*
X103448416Y-156486496D01*
X103462199Y-156499637D01*
X103475340Y-156513420D01*
X103487814Y-156527821D01*
X103499596Y-156542814D01*
X103510661Y-156558374D01*
X103520984Y-156574476D01*
X103530540Y-156591096D01*
X103539304Y-156608208D01*
X103547252Y-156625789D01*
X103554358Y-156643811D01*
X103560598Y-156662252D01*
X103565946Y-156681085D01*
X103570377Y-156700286D01*
X103573868Y-156719830D01*
X103576391Y-156739692D01*
X103577924Y-156759847D01*
X103578440Y-156780271D01*
X103577924Y-156800694D01*
X103576391Y-156820849D01*
X103573868Y-156840711D01*
X103570377Y-156860255D01*
X103565946Y-156879456D01*
X103560598Y-156898289D01*
X103554358Y-156916730D01*
X103547252Y-156934753D01*
X103539304Y-156952333D01*
X103530540Y-156969445D01*
X103520984Y-156986065D01*
X103510661Y-157002167D01*
X103499596Y-157017727D01*
X103487814Y-157032720D01*
X103475340Y-157047121D01*
X103462199Y-157060904D01*
X103448416Y-157074045D01*
X103434015Y-157086519D01*
X103419022Y-157098301D01*
X103403462Y-157109366D01*
X103387360Y-157119689D01*
X103370740Y-157129245D01*
X103353628Y-157138009D01*
X103336048Y-157145957D01*
X103318025Y-157153063D01*
X103299584Y-157159303D01*
X103280751Y-157164651D01*
X103261550Y-157169082D01*
X103242006Y-157172573D01*
X103222144Y-157175096D01*
X103201989Y-157176629D01*
X103181566Y-157177145D01*
X103161142Y-157176629D01*
X103140987Y-157175096D01*
X103121125Y-157172573D01*
X103101581Y-157169082D01*
X103082380Y-157164651D01*
X103063547Y-157159303D01*
X103045106Y-157153063D01*
X103027084Y-157145957D01*
X103009503Y-157138009D01*
X102992391Y-157129245D01*
X102975771Y-157119689D01*
X102959669Y-157109366D01*
X102944109Y-157098301D01*
X102929116Y-157086519D01*
X102914715Y-157074045D01*
X102900932Y-157060904D01*
X102887791Y-157047121D01*
X102875317Y-157032720D01*
X102863535Y-157017727D01*
X102852470Y-157002167D01*
X102842147Y-156986065D01*
X102832591Y-156969445D01*
X102823827Y-156952333D01*
X102815879Y-156934753D01*
X102808773Y-156916730D01*
X102802533Y-156898289D01*
X102797185Y-156879456D01*
X102792754Y-156860255D01*
X102789263Y-156840711D01*
X102786740Y-156820849D01*
X102785207Y-156800694D01*
X102784691Y-156780271D01*
X102785207Y-156759847D01*
X102786740Y-156739692D01*
X102789263Y-156719830D01*
X102792754Y-156700286D01*
X102797185Y-156681085D01*
X102802533Y-156662252D01*
X102808773Y-156643811D01*
X102815879Y-156625789D01*
X102823827Y-156608208D01*
X102832591Y-156591096D01*
X102842147Y-156574476D01*
X102852470Y-156558374D01*
X102863535Y-156542814D01*
X102875317Y-156527821D01*
X102887791Y-156513420D01*
X102900932Y-156499637D01*
X102914715Y-156486496D01*
X102929116Y-156474022D01*
X102944109Y-156462240D01*
X102959669Y-156451175D01*
X102975771Y-156440852D01*
X102992391Y-156431296D01*
X103009503Y-156422532D01*
X103027084Y-156414584D01*
X103045106Y-156407478D01*
X103063547Y-156401238D01*
X103082380Y-156395890D01*
X103101581Y-156391459D01*
X103121125Y-156387968D01*
X103140987Y-156385445D01*
X103161142Y-156383912D01*
X103181566Y-156383396D01*
X103201989Y-156383912D01*
G37*
G36*
X104650390Y-157442073D02*
G01*
X104663827Y-157443095D01*
X104677068Y-157444777D01*
X104690098Y-157447104D01*
X104702899Y-157450058D01*
X104715454Y-157453624D01*
X104727748Y-157457783D01*
X104739763Y-157462521D01*
X104751483Y-157467819D01*
X104762892Y-157473662D01*
X104773972Y-157480033D01*
X104784707Y-157486915D01*
X104795080Y-157494292D01*
X104805075Y-157502146D01*
X104814675Y-157510462D01*
X104823864Y-157519223D01*
X104832625Y-157528412D01*
X104840940Y-157538012D01*
X104848795Y-157548007D01*
X104856172Y-157558380D01*
X104863053Y-157569115D01*
X104869424Y-157580195D01*
X104875267Y-157591604D01*
X104880565Y-157603324D01*
X104885303Y-157615339D01*
X104889462Y-157627633D01*
X104893028Y-157640188D01*
X104895982Y-157652989D01*
X104898309Y-157666018D01*
X104899991Y-157679260D01*
X104901013Y-157692697D01*
X104901357Y-157706312D01*
X104901357Y-157838604D01*
X104908075Y-157821550D01*
X104930296Y-157776592D01*
X104948189Y-157746555D01*
X104971120Y-157713030D01*
X104999478Y-157677179D01*
X105033649Y-157640166D01*
X105074021Y-157603153D01*
X105096654Y-157585010D01*
X105120982Y-157567302D01*
X105147054Y-157550177D01*
X105174919Y-157533777D01*
X105204625Y-157518250D01*
X105236220Y-157503740D01*
X105269753Y-157490393D01*
X105305273Y-157478354D01*
X105342827Y-157467769D01*
X105382464Y-157458782D01*
X105424234Y-157451539D01*
X105468183Y-157446186D01*
X105514360Y-157442867D01*
X105562815Y-157441729D01*
X105660419Y-157444829D01*
X105707937Y-157448705D01*
X105754535Y-157454131D01*
X105800163Y-157461107D01*
X105844775Y-157469634D01*
X105888320Y-157479711D01*
X105930751Y-157491338D01*
X105972020Y-157504516D01*
X106012077Y-157519243D01*
X106050875Y-157535521D01*
X106088365Y-157553350D01*
X106124498Y-157572729D01*
X106159226Y-157593657D01*
X106192501Y-157616137D01*
X106224274Y-157640166D01*
X106254496Y-157665746D01*
X106283120Y-157692876D01*
X106310097Y-157721557D01*
X106335378Y-157751787D01*
X106358915Y-157783568D01*
X106380659Y-157816900D01*
X106400563Y-157851781D01*
X106418577Y-157888213D01*
X106434653Y-157926195D01*
X106448743Y-157965728D01*
X106460798Y-158006811D01*
X106470770Y-158049444D01*
X106478610Y-158093627D01*
X106484271Y-158139361D01*
X106487702Y-158186645D01*
X106488857Y-158235479D01*
X106488857Y-159822979D01*
X106488513Y-159836594D01*
X106487491Y-159850031D01*
X106485808Y-159863273D01*
X106483482Y-159876302D01*
X106480527Y-159889103D01*
X106476962Y-159901659D01*
X106472802Y-159913953D01*
X106468065Y-159925968D01*
X106462767Y-159937688D01*
X106456924Y-159949096D01*
X106450553Y-159960176D01*
X106443671Y-159970911D01*
X106436295Y-159981285D01*
X106428440Y-159991280D01*
X106420124Y-160000880D01*
X106411364Y-160010069D01*
X106402175Y-160018829D01*
X106392575Y-160027145D01*
X106382580Y-160035000D01*
X106372206Y-160042376D01*
X106361471Y-160049258D01*
X106350391Y-160055629D01*
X106338983Y-160061472D01*
X106327263Y-160066770D01*
X106315248Y-160071507D01*
X106302954Y-160075667D01*
X106290398Y-160079232D01*
X106277597Y-160082187D01*
X106264568Y-160084513D01*
X106251326Y-160086196D01*
X106237889Y-160087218D01*
X106224274Y-160087562D01*
X105959690Y-160087562D01*
X105946075Y-160087218D01*
X105932638Y-160086197D01*
X105919396Y-160084516D01*
X105906366Y-160082191D01*
X105893565Y-160079239D01*
X105881010Y-160075677D01*
X105868716Y-160071520D01*
X105856701Y-160066787D01*
X105844981Y-160061492D01*
X105833572Y-160055653D01*
X105822492Y-160049287D01*
X105811758Y-160042410D01*
X105801384Y-160035038D01*
X105791389Y-160027188D01*
X105781789Y-160018877D01*
X105772600Y-160010122D01*
X105763840Y-160000938D01*
X105755524Y-159991343D01*
X105747669Y-159981352D01*
X105740293Y-159970984D01*
X105733411Y-159960253D01*
X105727040Y-159949178D01*
X105721197Y-159937774D01*
X105715899Y-159926058D01*
X105711161Y-159914046D01*
X105707002Y-159901755D01*
X105703437Y-159889203D01*
X105700482Y-159876404D01*
X105698155Y-159863376D01*
X105696473Y-159850136D01*
X105695451Y-159836700D01*
X105695107Y-159823085D01*
X105695107Y-158500062D01*
X105692830Y-158452758D01*
X105686193Y-158409984D01*
X105675486Y-158371618D01*
X105661001Y-158337540D01*
X105643027Y-158307628D01*
X105621856Y-158281761D01*
X105597778Y-158259819D01*
X105571084Y-158241680D01*
X105542064Y-158227223D01*
X105511010Y-158216326D01*
X105478211Y-158208869D01*
X105443960Y-158204731D01*
X105408545Y-158203791D01*
X105372259Y-158205926D01*
X105335391Y-158211017D01*
X105298232Y-158218942D01*
X105261073Y-158229580D01*
X105224206Y-158242810D01*
X105187919Y-158258511D01*
X105152505Y-158276562D01*
X105118253Y-158296841D01*
X105085454Y-158319227D01*
X105054400Y-158343600D01*
X105025381Y-158369838D01*
X104998686Y-158397819D01*
X104974608Y-158427424D01*
X104953437Y-158458531D01*
X104935464Y-158491019D01*
X104920978Y-158524766D01*
X104910271Y-158559652D01*
X104903634Y-158595555D01*
X104901357Y-158632354D01*
X104901357Y-159822979D01*
X104901013Y-159836594D01*
X104899991Y-159850031D01*
X104898309Y-159863273D01*
X104895982Y-159876302D01*
X104893028Y-159889103D01*
X104889462Y-159901659D01*
X104885303Y-159913953D01*
X104880565Y-159925968D01*
X104875267Y-159937688D01*
X104869424Y-159949096D01*
X104863053Y-159960176D01*
X104856172Y-159970911D01*
X104848795Y-159981285D01*
X104840940Y-159991280D01*
X104832625Y-160000880D01*
X104823864Y-160010069D01*
X104814675Y-160018829D01*
X104805075Y-160027145D01*
X104795080Y-160035000D01*
X104784707Y-160042376D01*
X104773972Y-160049258D01*
X104762892Y-160055629D01*
X104751483Y-160061472D01*
X104739763Y-160066770D01*
X104727748Y-160071507D01*
X104715454Y-160075667D01*
X104702899Y-160079232D01*
X104690098Y-160082187D01*
X104677068Y-160084513D01*
X104663827Y-160086196D01*
X104650390Y-160087218D01*
X104636774Y-160087562D01*
X104372190Y-160087562D01*
X104358575Y-160087218D01*
X104345138Y-160086196D01*
X104331896Y-160084513D01*
X104318866Y-160082187D01*
X104306065Y-160079232D01*
X104293510Y-160075667D01*
X104281216Y-160071507D01*
X104269201Y-160066770D01*
X104257481Y-160061472D01*
X104246072Y-160055629D01*
X104234992Y-160049258D01*
X104224258Y-160042376D01*
X104213884Y-160035000D01*
X104203889Y-160027145D01*
X104194289Y-160018829D01*
X104185100Y-160010069D01*
X104176340Y-160000880D01*
X104168024Y-159991280D01*
X104160169Y-159981285D01*
X104152793Y-159970911D01*
X104145911Y-159960176D01*
X104139540Y-159949096D01*
X104133697Y-159937688D01*
X104128399Y-159925968D01*
X104123661Y-159913953D01*
X104119502Y-159901659D01*
X104115937Y-159889103D01*
X104112982Y-159876302D01*
X104110656Y-159863273D01*
X104108973Y-159850031D01*
X104107951Y-159836594D01*
X104107607Y-159822979D01*
X104107607Y-157706312D01*
X104107951Y-157692697D01*
X104108973Y-157679260D01*
X104110656Y-157666019D01*
X104112982Y-157652990D01*
X104115937Y-157640189D01*
X104119502Y-157627634D01*
X104123661Y-157615340D01*
X104128399Y-157603325D01*
X104133697Y-157591605D01*
X104139540Y-157580196D01*
X104145911Y-157569117D01*
X104152793Y-157558382D01*
X104160169Y-157548008D01*
X104168024Y-157538013D01*
X104176340Y-157528413D01*
X104185100Y-157519224D01*
X104194289Y-157510463D01*
X104203889Y-157502147D01*
X104213884Y-157494292D01*
X104224258Y-157486916D01*
X104234992Y-157480034D01*
X104246072Y-157473663D01*
X104257481Y-157467820D01*
X104269201Y-157462521D01*
X104281216Y-157457784D01*
X104293510Y-157453624D01*
X104306065Y-157450059D01*
X104318866Y-157447104D01*
X104331896Y-157444777D01*
X104345138Y-157443095D01*
X104358575Y-157442073D01*
X104372190Y-157441729D01*
X104636774Y-157441729D01*
X104650390Y-157442073D01*
G37*
G36*
X103327473Y-157442073D02*
G01*
X103340909Y-157443095D01*
X103354150Y-157444777D01*
X103367180Y-157447104D01*
X103379980Y-157450058D01*
X103392536Y-157453624D01*
X103404829Y-157457783D01*
X103416844Y-157462521D01*
X103428564Y-157467819D01*
X103439973Y-157473662D01*
X103451053Y-157480033D01*
X103461788Y-157486915D01*
X103472161Y-157494292D01*
X103482156Y-157502146D01*
X103491757Y-157510462D01*
X103500945Y-157519223D01*
X103509706Y-157528412D01*
X103518022Y-157538012D01*
X103525877Y-157548007D01*
X103533254Y-157558380D01*
X103540136Y-157569115D01*
X103546506Y-157580195D01*
X103552349Y-157591604D01*
X103557648Y-157603324D01*
X103562386Y-157615339D01*
X103566545Y-157627633D01*
X103570111Y-157640188D01*
X103573065Y-157652989D01*
X103575392Y-157666018D01*
X103577074Y-157679260D01*
X103578096Y-157692697D01*
X103578440Y-157706312D01*
X103578440Y-159822979D01*
X103578096Y-159836594D01*
X103577074Y-159850031D01*
X103575392Y-159863273D01*
X103573065Y-159876302D01*
X103570111Y-159889103D01*
X103566545Y-159901659D01*
X103562386Y-159913953D01*
X103557648Y-159925968D01*
X103552349Y-159937688D01*
X103546506Y-159949096D01*
X103540136Y-159960176D01*
X103533254Y-159970911D01*
X103525877Y-159981285D01*
X103518022Y-159991280D01*
X103509706Y-160000880D01*
X103500945Y-160010069D01*
X103491757Y-160018829D01*
X103482156Y-160027145D01*
X103472161Y-160035000D01*
X103461788Y-160042376D01*
X103451053Y-160049258D01*
X103439973Y-160055629D01*
X103428564Y-160061472D01*
X103416844Y-160066770D01*
X103404829Y-160071507D01*
X103392536Y-160075667D01*
X103379980Y-160079232D01*
X103367180Y-160082187D01*
X103354150Y-160084513D01*
X103340909Y-160086196D01*
X103327473Y-160087218D01*
X103313857Y-160087562D01*
X103049274Y-160087562D01*
X103035659Y-160087218D01*
X103022222Y-160086196D01*
X103008981Y-160084513D01*
X102995952Y-160082187D01*
X102983151Y-160079232D01*
X102970595Y-160075667D01*
X102958302Y-160071507D01*
X102946287Y-160066770D01*
X102934567Y-160061472D01*
X102923158Y-160055629D01*
X102912078Y-160049258D01*
X102901343Y-160042376D01*
X102890970Y-160035000D01*
X102880975Y-160027145D01*
X102871375Y-160018829D01*
X102862186Y-160010069D01*
X102853425Y-160000880D01*
X102845109Y-159991280D01*
X102837254Y-159981285D01*
X102829878Y-159970911D01*
X102822995Y-159960176D01*
X102816625Y-159949096D01*
X102810782Y-159937688D01*
X102805483Y-159925968D01*
X102800746Y-159913953D01*
X102796586Y-159901659D01*
X102793020Y-159889103D01*
X102790066Y-159876302D01*
X102787739Y-159863273D01*
X102786057Y-159850031D01*
X102785035Y-159836594D01*
X102784691Y-159822979D01*
X102784691Y-157706312D01*
X102785035Y-157692697D01*
X102786057Y-157679260D01*
X102787739Y-157666019D01*
X102790066Y-157652990D01*
X102793020Y-157640189D01*
X102796586Y-157627634D01*
X102800746Y-157615340D01*
X102805483Y-157603325D01*
X102810782Y-157591605D01*
X102816625Y-157580196D01*
X102822995Y-157569117D01*
X102829878Y-157558382D01*
X102837254Y-157548008D01*
X102845109Y-157538013D01*
X102853425Y-157528413D01*
X102862186Y-157519224D01*
X102871375Y-157510463D01*
X102880975Y-157502147D01*
X102890970Y-157494292D01*
X102901343Y-157486916D01*
X102912078Y-157480034D01*
X102923158Y-157473663D01*
X102934567Y-157467820D01*
X102946287Y-157462521D01*
X102958302Y-157457784D01*
X102970595Y-157453624D01*
X102983151Y-157450059D01*
X102995952Y-157447104D01*
X103008981Y-157444777D01*
X103022222Y-157443095D01*
X103035659Y-157442073D01*
X103049274Y-157441729D01*
X103313857Y-157441729D01*
X103327473Y-157442073D01*
G37*
D13*
X105450053Y-172063628D02*
X104950053Y-171349342D01*
X104592910Y-172063628D02*
X104592910Y-170563628D01*
X104592910Y-170563628D02*
X105164339Y-170563628D01*
X105164339Y-170563628D02*
X105307196Y-170635057D01*
X105307196Y-170635057D02*
X105378625Y-170706485D01*
X105378625Y-170706485D02*
X105450053Y-170849342D01*
X105450053Y-170849342D02*
X105450053Y-171063628D01*
X105450053Y-171063628D02*
X105378625Y-171206485D01*
X105378625Y-171206485D02*
X105307196Y-171277914D01*
X105307196Y-171277914D02*
X105164339Y-171349342D01*
X105164339Y-171349342D02*
X104592910Y-171349342D01*
X108955253Y-172063628D02*
X108455253Y-171349342D01*
X108098110Y-172063628D02*
X108098110Y-170563628D01*
X108098110Y-170563628D02*
X108669539Y-170563628D01*
X108669539Y-170563628D02*
X108812396Y-170635057D01*
X108812396Y-170635057D02*
X108883825Y-170706485D01*
X108883825Y-170706485D02*
X108955253Y-170849342D01*
X108955253Y-170849342D02*
X108955253Y-171063628D01*
X108955253Y-171063628D02*
X108883825Y-171206485D01*
X108883825Y-171206485D02*
X108812396Y-171277914D01*
X108812396Y-171277914D02*
X108669539Y-171349342D01*
X108669539Y-171349342D02*
X108098110Y-171349342D01*
X112257253Y-172063628D02*
X111757253Y-171349342D01*
X111400110Y-172063628D02*
X111400110Y-170563628D01*
X111400110Y-170563628D02*
X111971539Y-170563628D01*
X111971539Y-170563628D02*
X112114396Y-170635057D01*
X112114396Y-170635057D02*
X112185825Y-170706485D01*
X112185825Y-170706485D02*
X112257253Y-170849342D01*
X112257253Y-170849342D02*
X112257253Y-171063628D01*
X112257253Y-171063628D02*
X112185825Y-171206485D01*
X112185825Y-171206485D02*
X112114396Y-171277914D01*
X112114396Y-171277914D02*
X111971539Y-171349342D01*
X111971539Y-171349342D02*
X111400110Y-171349342D01*
X86095253Y-172063628D02*
X85595253Y-171349342D01*
X85238110Y-172063628D02*
X85238110Y-170563628D01*
X85238110Y-170563628D02*
X85809539Y-170563628D01*
X85809539Y-170563628D02*
X85952396Y-170635057D01*
X85952396Y-170635057D02*
X86023825Y-170706485D01*
X86023825Y-170706485D02*
X86095253Y-170849342D01*
X86095253Y-170849342D02*
X86095253Y-171063628D01*
X86095253Y-171063628D02*
X86023825Y-171206485D01*
X86023825Y-171206485D02*
X85952396Y-171277914D01*
X85952396Y-171277914D02*
X85809539Y-171349342D01*
X85809539Y-171349342D02*
X85238110Y-171349342D01*
X89498853Y-172063628D02*
X88998853Y-171349342D01*
X88641710Y-172063628D02*
X88641710Y-170563628D01*
X88641710Y-170563628D02*
X89213139Y-170563628D01*
X89213139Y-170563628D02*
X89355996Y-170635057D01*
X89355996Y-170635057D02*
X89427425Y-170706485D01*
X89427425Y-170706485D02*
X89498853Y-170849342D01*
X89498853Y-170849342D02*
X89498853Y-171063628D01*
X89498853Y-171063628D02*
X89427425Y-171206485D01*
X89427425Y-171206485D02*
X89355996Y-171277914D01*
X89355996Y-171277914D02*
X89213139Y-171349342D01*
X89213139Y-171349342D02*
X88641710Y-171349342D01*
X115162396Y-172063628D02*
X114448110Y-172063628D01*
X114448110Y-172063628D02*
X114448110Y-170563628D01*
X118607253Y-172063628D02*
X118107253Y-171349342D01*
X117750110Y-172063628D02*
X117750110Y-170563628D01*
X117750110Y-170563628D02*
X118321539Y-170563628D01*
X118321539Y-170563628D02*
X118464396Y-170635057D01*
X118464396Y-170635057D02*
X118535825Y-170706485D01*
X118535825Y-170706485D02*
X118607253Y-170849342D01*
X118607253Y-170849342D02*
X118607253Y-171063628D01*
X118607253Y-171063628D02*
X118535825Y-171206485D01*
X118535825Y-171206485D02*
X118464396Y-171277914D01*
X118464396Y-171277914D02*
X118321539Y-171349342D01*
X118321539Y-171349342D02*
X117750110Y-171349342D01*
X121258396Y-172063628D02*
X120544110Y-172063628D01*
X120544110Y-172063628D02*
X120544110Y-170563628D01*
X92708796Y-172063628D02*
X91994510Y-172063628D01*
X91994510Y-172063628D02*
X91994510Y-170563628D01*
X99252453Y-172063628D02*
X98752453Y-171349342D01*
X98395310Y-172063628D02*
X98395310Y-170563628D01*
X98395310Y-170563628D02*
X98966739Y-170563628D01*
X98966739Y-170563628D02*
X99109596Y-170635057D01*
X99109596Y-170635057D02*
X99181025Y-170706485D01*
X99181025Y-170706485D02*
X99252453Y-170849342D01*
X99252453Y-170849342D02*
X99252453Y-171063628D01*
X99252453Y-171063628D02*
X99181025Y-171206485D01*
X99181025Y-171206485D02*
X99109596Y-171277914D01*
X99109596Y-171277914D02*
X98966739Y-171349342D01*
X98966739Y-171349342D02*
X98395310Y-171349342D01*
X96052053Y-172063628D02*
X95552053Y-171349342D01*
X95194910Y-172063628D02*
X95194910Y-170563628D01*
X95194910Y-170563628D02*
X95766339Y-170563628D01*
X95766339Y-170563628D02*
X95909196Y-170635057D01*
X95909196Y-170635057D02*
X95980625Y-170706485D01*
X95980625Y-170706485D02*
X96052053Y-170849342D01*
X96052053Y-170849342D02*
X96052053Y-171063628D01*
X96052053Y-171063628D02*
X95980625Y-171206485D01*
X95980625Y-171206485D02*
X95909196Y-171277914D01*
X95909196Y-171277914D02*
X95766339Y-171349342D01*
X95766339Y-171349342D02*
X95194910Y-171349342D01*
X102309996Y-172063628D02*
X101595710Y-172063628D01*
X101595710Y-172063628D02*
X101595710Y-170563628D01*
D14*
X133604000Y-144373600D02*
X93421200Y-154432000D01*
X110693200Y-135788400D01*
X109982000Y-127812800D01*
X130302000Y-122783600D01*
X133604000Y-144373600D01*
G36*
X133604000Y-144373600D02*
G01*
X93421200Y-154432000D01*
X110693200Y-135788400D01*
X109982000Y-127812800D01*
X130302000Y-122783600D01*
X133604000Y-144373600D01*
G37*
D10*
X78486000Y-71374000D02*
X79756000Y-64008000D01*
X121158000Y-64008000D01*
X78486000Y-71374000D01*
G36*
X78486000Y-71374000D02*
G01*
X79756000Y-64008000D01*
X121158000Y-64008000D01*
X78486000Y-71374000D01*
G37*
D14*
X126949200Y-100431600D02*
X116992400Y-102971600D01*
X118364000Y-100533200D01*
X93472000Y-100533200D01*
X93421200Y-102006400D01*
X115874800Y-101955600D01*
X115062000Y-103428800D01*
X73253600Y-114096800D01*
X75946000Y-93776800D01*
X124256800Y-83515200D01*
X126949200Y-100431600D01*
G36*
X126949200Y-100431600D02*
G01*
X116992400Y-102971600D01*
X118364000Y-100533200D01*
X93472000Y-100533200D01*
X93421200Y-102006400D01*
X115874800Y-101955600D01*
X115062000Y-103428800D01*
X73253600Y-114096800D01*
X75946000Y-93776800D01*
X124256800Y-83515200D01*
X126949200Y-100431600D01*
G37*
X109118400Y-135483600D02*
X90762015Y-154990800D01*
X67208400Y-161188400D01*
X70154800Y-138226800D01*
X108458000Y-128168400D01*
X109118400Y-135483600D01*
G36*
X109118400Y-135483600D02*
G01*
X90762015Y-154990800D01*
X67208400Y-161188400D01*
X70154800Y-138226800D01*
X108458000Y-128168400D01*
X109118400Y-135483600D01*
G37*
D15*
X75777044Y-163609019D02*
X75872282Y-163609019D01*
X75872282Y-163609019D02*
X75967520Y-163656638D01*
X75967520Y-163656638D02*
X76015139Y-163704257D01*
X76015139Y-163704257D02*
X76062758Y-163799495D01*
X76062758Y-163799495D02*
X76110377Y-163989971D01*
X76110377Y-163989971D02*
X76110377Y-164228066D01*
X76110377Y-164228066D02*
X76062758Y-164418542D01*
X76062758Y-164418542D02*
X76015139Y-164513780D01*
X76015139Y-164513780D02*
X75967520Y-164561400D01*
X75967520Y-164561400D02*
X75872282Y-164609019D01*
X75872282Y-164609019D02*
X75777044Y-164609019D01*
X75777044Y-164609019D02*
X75681806Y-164561400D01*
X75681806Y-164561400D02*
X75634187Y-164513780D01*
X75634187Y-164513780D02*
X75586568Y-164418542D01*
X75586568Y-164418542D02*
X75538949Y-164228066D01*
X75538949Y-164228066D02*
X75538949Y-163989971D01*
X75538949Y-163989971D02*
X75586568Y-163799495D01*
X75586568Y-163799495D02*
X75634187Y-163704257D01*
X75634187Y-163704257D02*
X75681806Y-163656638D01*
X75681806Y-163656638D02*
X75777044Y-163609019D01*
X76443711Y-164609019D02*
X76967520Y-163942352D01*
X76443711Y-163942352D02*
X76967520Y-164609019D01*
X77300854Y-163704257D02*
X77348473Y-163656638D01*
X77348473Y-163656638D02*
X77443711Y-163609019D01*
X77443711Y-163609019D02*
X77681806Y-163609019D01*
X77681806Y-163609019D02*
X77777044Y-163656638D01*
X77777044Y-163656638D02*
X77824663Y-163704257D01*
X77824663Y-163704257D02*
X77872282Y-163799495D01*
X77872282Y-163799495D02*
X77872282Y-163894733D01*
X77872282Y-163894733D02*
X77824663Y-164037590D01*
X77824663Y-164037590D02*
X77253235Y-164609019D01*
X77253235Y-164609019D02*
X77872282Y-164609019D01*
X78777044Y-163609019D02*
X78300854Y-163609019D01*
X78300854Y-163609019D02*
X78253235Y-164085209D01*
X78253235Y-164085209D02*
X78300854Y-164037590D01*
X78300854Y-164037590D02*
X78396092Y-163989971D01*
X78396092Y-163989971D02*
X78634187Y-163989971D01*
X78634187Y-163989971D02*
X78729425Y-164037590D01*
X78729425Y-164037590D02*
X78777044Y-164085209D01*
X78777044Y-164085209D02*
X78824663Y-164180447D01*
X78824663Y-164180447D02*
X78824663Y-164418542D01*
X78824663Y-164418542D02*
X78777044Y-164513780D01*
X78777044Y-164513780D02*
X78729425Y-164561400D01*
X78729425Y-164561400D02*
X78634187Y-164609019D01*
X78634187Y-164609019D02*
X78396092Y-164609019D01*
X78396092Y-164609019D02*
X78300854Y-164561400D01*
X78300854Y-164561400D02*
X78253235Y-164513780D01*
X79396092Y-164037590D02*
X79300854Y-163989971D01*
X79300854Y-163989971D02*
X79253235Y-163942352D01*
X79253235Y-163942352D02*
X79205616Y-163847114D01*
X79205616Y-163847114D02*
X79205616Y-163799495D01*
X79205616Y-163799495D02*
X79253235Y-163704257D01*
X79253235Y-163704257D02*
X79300854Y-163656638D01*
X79300854Y-163656638D02*
X79396092Y-163609019D01*
X79396092Y-163609019D02*
X79586568Y-163609019D01*
X79586568Y-163609019D02*
X79681806Y-163656638D01*
X79681806Y-163656638D02*
X79729425Y-163704257D01*
X79729425Y-163704257D02*
X79777044Y-163799495D01*
X79777044Y-163799495D02*
X79777044Y-163847114D01*
X79777044Y-163847114D02*
X79729425Y-163942352D01*
X79729425Y-163942352D02*
X79681806Y-163989971D01*
X79681806Y-163989971D02*
X79586568Y-164037590D01*
X79586568Y-164037590D02*
X79396092Y-164037590D01*
X79396092Y-164037590D02*
X79300854Y-164085209D01*
X79300854Y-164085209D02*
X79253235Y-164132828D01*
X79253235Y-164132828D02*
X79205616Y-164228066D01*
X79205616Y-164228066D02*
X79205616Y-164418542D01*
X79205616Y-164418542D02*
X79253235Y-164513780D01*
X79253235Y-164513780D02*
X79300854Y-164561400D01*
X79300854Y-164561400D02*
X79396092Y-164609019D01*
X79396092Y-164609019D02*
X79586568Y-164609019D01*
X79586568Y-164609019D02*
X79681806Y-164561400D01*
X79681806Y-164561400D02*
X79729425Y-164513780D01*
X79729425Y-164513780D02*
X79777044Y-164418542D01*
X79777044Y-164418542D02*
X79777044Y-164228066D01*
X79777044Y-164228066D02*
X79729425Y-164132828D01*
X79729425Y-164132828D02*
X79681806Y-164085209D01*
X79681806Y-164085209D02*
X79586568Y-164037590D01*
X80396092Y-163609019D02*
X80491330Y-163609019D01*
X80491330Y-163609019D02*
X80586568Y-163656638D01*
X80586568Y-163656638D02*
X80634187Y-163704257D01*
X80634187Y-163704257D02*
X80681806Y-163799495D01*
X80681806Y-163799495D02*
X80729425Y-163989971D01*
X80729425Y-163989971D02*
X80729425Y-164228066D01*
X80729425Y-164228066D02*
X80681806Y-164418542D01*
X80681806Y-164418542D02*
X80634187Y-164513780D01*
X80634187Y-164513780D02*
X80586568Y-164561400D01*
X80586568Y-164561400D02*
X80491330Y-164609019D01*
X80491330Y-164609019D02*
X80396092Y-164609019D01*
X80396092Y-164609019D02*
X80300854Y-164561400D01*
X80300854Y-164561400D02*
X80253235Y-164513780D01*
X80253235Y-164513780D02*
X80205616Y-164418542D01*
X80205616Y-164418542D02*
X80157997Y-164228066D01*
X80157997Y-164228066D02*
X80157997Y-163989971D01*
X80157997Y-163989971D02*
X80205616Y-163799495D01*
X80205616Y-163799495D02*
X80253235Y-163704257D01*
X80253235Y-163704257D02*
X80300854Y-163656638D01*
X80300854Y-163656638D02*
X80396092Y-163609019D01*
D13*
X126316225Y-165229628D02*
X126459082Y-165229628D01*
X126459082Y-165229628D02*
X126601939Y-165301057D01*
X126601939Y-165301057D02*
X126673368Y-165372485D01*
X126673368Y-165372485D02*
X126744796Y-165515342D01*
X126744796Y-165515342D02*
X126816225Y-165801057D01*
X126816225Y-165801057D02*
X126816225Y-166158200D01*
X126816225Y-166158200D02*
X126744796Y-166443914D01*
X126744796Y-166443914D02*
X126673368Y-166586771D01*
X126673368Y-166586771D02*
X126601939Y-166658200D01*
X126601939Y-166658200D02*
X126459082Y-166729628D01*
X126459082Y-166729628D02*
X126316225Y-166729628D01*
X126316225Y-166729628D02*
X126173368Y-166658200D01*
X126173368Y-166658200D02*
X126101939Y-166586771D01*
X126101939Y-166586771D02*
X126030510Y-166443914D01*
X126030510Y-166443914D02*
X125959082Y-166158200D01*
X125959082Y-166158200D02*
X125959082Y-165801057D01*
X125959082Y-165801057D02*
X126030510Y-165515342D01*
X126030510Y-165515342D02*
X126101939Y-165372485D01*
X126101939Y-165372485D02*
X126173368Y-165301057D01*
X126173368Y-165301057D02*
X126316225Y-165229628D01*
X127744796Y-165229628D02*
X127887653Y-165229628D01*
X127887653Y-165229628D02*
X128030510Y-165301057D01*
X128030510Y-165301057D02*
X128101939Y-165372485D01*
X128101939Y-165372485D02*
X128173367Y-165515342D01*
X128173367Y-165515342D02*
X128244796Y-165801057D01*
X128244796Y-165801057D02*
X128244796Y-166158200D01*
X128244796Y-166158200D02*
X128173367Y-166443914D01*
X128173367Y-166443914D02*
X128101939Y-166586771D01*
X128101939Y-166586771D02*
X128030510Y-166658200D01*
X128030510Y-166658200D02*
X127887653Y-166729628D01*
X127887653Y-166729628D02*
X127744796Y-166729628D01*
X127744796Y-166729628D02*
X127601939Y-166658200D01*
X127601939Y-166658200D02*
X127530510Y-166586771D01*
X127530510Y-166586771D02*
X127459081Y-166443914D01*
X127459081Y-166443914D02*
X127387653Y-166158200D01*
X127387653Y-166158200D02*
X127387653Y-165801057D01*
X127387653Y-165801057D02*
X127459081Y-165515342D01*
X127459081Y-165515342D02*
X127530510Y-165372485D01*
X127530510Y-165372485D02*
X127601939Y-165301057D01*
X127601939Y-165301057D02*
X127744796Y-165229628D01*
X129673367Y-166729628D02*
X128816224Y-166729628D01*
X129244795Y-166729628D02*
X129244795Y-165229628D01*
X129244795Y-165229628D02*
X129101938Y-165443914D01*
X129101938Y-165443914D02*
X128959081Y-165586771D01*
X128959081Y-165586771D02*
X128816224Y-165658200D01*
X130601938Y-165229628D02*
X130744795Y-165229628D01*
X130744795Y-165229628D02*
X130887652Y-165301057D01*
X130887652Y-165301057D02*
X130959081Y-165372485D01*
X130959081Y-165372485D02*
X131030509Y-165515342D01*
X131030509Y-165515342D02*
X131101938Y-165801057D01*
X131101938Y-165801057D02*
X131101938Y-166158200D01*
X131101938Y-166158200D02*
X131030509Y-166443914D01*
X131030509Y-166443914D02*
X130959081Y-166586771D01*
X130959081Y-166586771D02*
X130887652Y-166658200D01*
X130887652Y-166658200D02*
X130744795Y-166729628D01*
X130744795Y-166729628D02*
X130601938Y-166729628D01*
X130601938Y-166729628D02*
X130459081Y-166658200D01*
X130459081Y-166658200D02*
X130387652Y-166586771D01*
X130387652Y-166586771D02*
X130316223Y-166443914D01*
X130316223Y-166443914D02*
X130244795Y-166158200D01*
X130244795Y-166158200D02*
X130244795Y-165801057D01*
X130244795Y-165801057D02*
X130316223Y-165515342D01*
X130316223Y-165515342D02*
X130387652Y-165372485D01*
X130387652Y-165372485D02*
X130459081Y-165301057D01*
X130459081Y-165301057D02*
X130601938Y-165229628D01*
D15*
X75443711Y-166504619D02*
X76015139Y-166504619D01*
X75729425Y-167504619D02*
X75729425Y-166504619D01*
X76253235Y-166504619D02*
X76919901Y-167504619D01*
X76919901Y-166504619D02*
X76253235Y-167504619D01*
X76262777Y-168990638D02*
X76167539Y-168943019D01*
X76167539Y-168943019D02*
X76024682Y-168943019D01*
X76024682Y-168943019D02*
X75881825Y-168990638D01*
X75881825Y-168990638D02*
X75786587Y-169085876D01*
X75786587Y-169085876D02*
X75738968Y-169181114D01*
X75738968Y-169181114D02*
X75691349Y-169371590D01*
X75691349Y-169371590D02*
X75691349Y-169514447D01*
X75691349Y-169514447D02*
X75738968Y-169704923D01*
X75738968Y-169704923D02*
X75786587Y-169800161D01*
X75786587Y-169800161D02*
X75881825Y-169895400D01*
X75881825Y-169895400D02*
X76024682Y-169943019D01*
X76024682Y-169943019D02*
X76119920Y-169943019D01*
X76119920Y-169943019D02*
X76262777Y-169895400D01*
X76262777Y-169895400D02*
X76310396Y-169847780D01*
X76310396Y-169847780D02*
X76310396Y-169514447D01*
X76310396Y-169514447D02*
X76119920Y-169514447D01*
X76738968Y-169943019D02*
X76738968Y-168943019D01*
X76738968Y-168943019D02*
X77310396Y-169943019D01*
X77310396Y-169943019D02*
X77310396Y-168943019D01*
X77786587Y-169943019D02*
X77786587Y-168943019D01*
X77786587Y-168943019D02*
X78024682Y-168943019D01*
X78024682Y-168943019D02*
X78167539Y-168990638D01*
X78167539Y-168990638D02*
X78262777Y-169085876D01*
X78262777Y-169085876D02*
X78310396Y-169181114D01*
X78310396Y-169181114D02*
X78358015Y-169371590D01*
X78358015Y-169371590D02*
X78358015Y-169514447D01*
X78358015Y-169514447D02*
X78310396Y-169704923D01*
X78310396Y-169704923D02*
X78262777Y-169800161D01*
X78262777Y-169800161D02*
X78167539Y-169895400D01*
X78167539Y-169895400D02*
X78024682Y-169943019D01*
X78024682Y-169943019D02*
X77786587Y-169943019D01*
D16*
X111780533Y-91483019D02*
X111447200Y-91006828D01*
X111209105Y-91483019D02*
X111209105Y-90483019D01*
X111209105Y-90483019D02*
X111590057Y-90483019D01*
X111590057Y-90483019D02*
X111685295Y-90530638D01*
X111685295Y-90530638D02*
X111732914Y-90578257D01*
X111732914Y-90578257D02*
X111780533Y-90673495D01*
X111780533Y-90673495D02*
X111780533Y-90816352D01*
X111780533Y-90816352D02*
X111732914Y-90911590D01*
X111732914Y-90911590D02*
X111685295Y-90959209D01*
X111685295Y-90959209D02*
X111590057Y-91006828D01*
X111590057Y-91006828D02*
X111209105Y-91006828D01*
X112732914Y-91483019D02*
X112161486Y-91483019D01*
X112447200Y-91483019D02*
X112447200Y-90483019D01*
X112447200Y-90483019D02*
X112351962Y-90625876D01*
X112351962Y-90625876D02*
X112256724Y-90721114D01*
X112256724Y-90721114D02*
X112161486Y-90768733D01*
X111796533Y-94587219D02*
X111463200Y-94111028D01*
X111225105Y-94587219D02*
X111225105Y-93587219D01*
X111225105Y-93587219D02*
X111606057Y-93587219D01*
X111606057Y-93587219D02*
X111701295Y-93634838D01*
X111701295Y-93634838D02*
X111748914Y-93682457D01*
X111748914Y-93682457D02*
X111796533Y-93777695D01*
X111796533Y-93777695D02*
X111796533Y-93920552D01*
X111796533Y-93920552D02*
X111748914Y-94015790D01*
X111748914Y-94015790D02*
X111701295Y-94063409D01*
X111701295Y-94063409D02*
X111606057Y-94111028D01*
X111606057Y-94111028D02*
X111225105Y-94111028D01*
X112129867Y-93587219D02*
X112748914Y-93587219D01*
X112748914Y-93587219D02*
X112415581Y-93968171D01*
X112415581Y-93968171D02*
X112558438Y-93968171D01*
X112558438Y-93968171D02*
X112653676Y-94015790D01*
X112653676Y-94015790D02*
X112701295Y-94063409D01*
X112701295Y-94063409D02*
X112748914Y-94158647D01*
X112748914Y-94158647D02*
X112748914Y-94396742D01*
X112748914Y-94396742D02*
X112701295Y-94491980D01*
X112701295Y-94491980D02*
X112653676Y-94539600D01*
X112653676Y-94539600D02*
X112558438Y-94587219D01*
X112558438Y-94587219D02*
X112272724Y-94587219D01*
X112272724Y-94587219D02*
X112177486Y-94539600D01*
X112177486Y-94539600D02*
X112129867Y-94491980D01*
X100518933Y-55528380D02*
X100471314Y-55576000D01*
X100471314Y-55576000D02*
X100328457Y-55623619D01*
X100328457Y-55623619D02*
X100233219Y-55623619D01*
X100233219Y-55623619D02*
X100090362Y-55576000D01*
X100090362Y-55576000D02*
X99995124Y-55480761D01*
X99995124Y-55480761D02*
X99947505Y-55385523D01*
X99947505Y-55385523D02*
X99899886Y-55195047D01*
X99899886Y-55195047D02*
X99899886Y-55052190D01*
X99899886Y-55052190D02*
X99947505Y-54861714D01*
X99947505Y-54861714D02*
X99995124Y-54766476D01*
X99995124Y-54766476D02*
X100090362Y-54671238D01*
X100090362Y-54671238D02*
X100233219Y-54623619D01*
X100233219Y-54623619D02*
X100328457Y-54623619D01*
X100328457Y-54623619D02*
X100471314Y-54671238D01*
X100471314Y-54671238D02*
X100518933Y-54718857D01*
X100899886Y-54718857D02*
X100947505Y-54671238D01*
X100947505Y-54671238D02*
X101042743Y-54623619D01*
X101042743Y-54623619D02*
X101280838Y-54623619D01*
X101280838Y-54623619D02*
X101376076Y-54671238D01*
X101376076Y-54671238D02*
X101423695Y-54718857D01*
X101423695Y-54718857D02*
X101471314Y-54814095D01*
X101471314Y-54814095D02*
X101471314Y-54909333D01*
X101471314Y-54909333D02*
X101423695Y-55052190D01*
X101423695Y-55052190D02*
X100852267Y-55623619D01*
X100852267Y-55623619D02*
X101471314Y-55623619D01*
X111796533Y-97584419D02*
X111463200Y-97108228D01*
X111225105Y-97584419D02*
X111225105Y-96584419D01*
X111225105Y-96584419D02*
X111606057Y-96584419D01*
X111606057Y-96584419D02*
X111701295Y-96632038D01*
X111701295Y-96632038D02*
X111748914Y-96679657D01*
X111748914Y-96679657D02*
X111796533Y-96774895D01*
X111796533Y-96774895D02*
X111796533Y-96917752D01*
X111796533Y-96917752D02*
X111748914Y-97012990D01*
X111748914Y-97012990D02*
X111701295Y-97060609D01*
X111701295Y-97060609D02*
X111606057Y-97108228D01*
X111606057Y-97108228D02*
X111225105Y-97108228D01*
X112653676Y-96917752D02*
X112653676Y-97584419D01*
X112415581Y-96536800D02*
X112177486Y-97251085D01*
X112177486Y-97251085D02*
X112796533Y-97251085D01*
X111780533Y-98206219D02*
X111447200Y-97730028D01*
X111209105Y-98206219D02*
X111209105Y-97206219D01*
X111209105Y-97206219D02*
X111590057Y-97206219D01*
X111590057Y-97206219D02*
X111685295Y-97253838D01*
X111685295Y-97253838D02*
X111732914Y-97301457D01*
X111732914Y-97301457D02*
X111780533Y-97396695D01*
X111780533Y-97396695D02*
X111780533Y-97539552D01*
X111780533Y-97539552D02*
X111732914Y-97634790D01*
X111732914Y-97634790D02*
X111685295Y-97682409D01*
X111685295Y-97682409D02*
X111590057Y-97730028D01*
X111590057Y-97730028D02*
X111209105Y-97730028D01*
X112161486Y-97301457D02*
X112209105Y-97253838D01*
X112209105Y-97253838D02*
X112304343Y-97206219D01*
X112304343Y-97206219D02*
X112542438Y-97206219D01*
X112542438Y-97206219D02*
X112637676Y-97253838D01*
X112637676Y-97253838D02*
X112685295Y-97301457D01*
X112685295Y-97301457D02*
X112732914Y-97396695D01*
X112732914Y-97396695D02*
X112732914Y-97491933D01*
X112732914Y-97491933D02*
X112685295Y-97634790D01*
X112685295Y-97634790D02*
X112113867Y-98206219D01*
X112113867Y-98206219D02*
X112732914Y-98206219D01*
X98080533Y-96269980D02*
X98032914Y-96317600D01*
X98032914Y-96317600D02*
X97890057Y-96365219D01*
X97890057Y-96365219D02*
X97794819Y-96365219D01*
X97794819Y-96365219D02*
X97651962Y-96317600D01*
X97651962Y-96317600D02*
X97556724Y-96222361D01*
X97556724Y-96222361D02*
X97509105Y-96127123D01*
X97509105Y-96127123D02*
X97461486Y-95936647D01*
X97461486Y-95936647D02*
X97461486Y-95793790D01*
X97461486Y-95793790D02*
X97509105Y-95603314D01*
X97509105Y-95603314D02*
X97556724Y-95508076D01*
X97556724Y-95508076D02*
X97651962Y-95412838D01*
X97651962Y-95412838D02*
X97794819Y-95365219D01*
X97794819Y-95365219D02*
X97890057Y-95365219D01*
X97890057Y-95365219D02*
X98032914Y-95412838D01*
X98032914Y-95412838D02*
X98080533Y-95460457D01*
X99032914Y-96365219D02*
X98461486Y-96365219D01*
X98747200Y-96365219D02*
X98747200Y-95365219D01*
X98747200Y-95365219D02*
X98651962Y-95508076D01*
X98651962Y-95508076D02*
X98556724Y-95603314D01*
X98556724Y-95603314D02*
X98461486Y-95650933D01*
X98080533Y-99419580D02*
X98032914Y-99467200D01*
X98032914Y-99467200D02*
X97890057Y-99514819D01*
X97890057Y-99514819D02*
X97794819Y-99514819D01*
X97794819Y-99514819D02*
X97651962Y-99467200D01*
X97651962Y-99467200D02*
X97556724Y-99371961D01*
X97556724Y-99371961D02*
X97509105Y-99276723D01*
X97509105Y-99276723D02*
X97461486Y-99086247D01*
X97461486Y-99086247D02*
X97461486Y-98943390D01*
X97461486Y-98943390D02*
X97509105Y-98752914D01*
X97509105Y-98752914D02*
X97556724Y-98657676D01*
X97556724Y-98657676D02*
X97651962Y-98562438D01*
X97651962Y-98562438D02*
X97794819Y-98514819D01*
X97794819Y-98514819D02*
X97890057Y-98514819D01*
X97890057Y-98514819D02*
X98032914Y-98562438D01*
X98032914Y-98562438D02*
X98080533Y-98610057D01*
X98413867Y-98514819D02*
X99032914Y-98514819D01*
X99032914Y-98514819D02*
X98699581Y-98895771D01*
X98699581Y-98895771D02*
X98842438Y-98895771D01*
X98842438Y-98895771D02*
X98937676Y-98943390D01*
X98937676Y-98943390D02*
X98985295Y-98991009D01*
X98985295Y-98991009D02*
X99032914Y-99086247D01*
X99032914Y-99086247D02*
X99032914Y-99324342D01*
X99032914Y-99324342D02*
X98985295Y-99419580D01*
X98985295Y-99419580D02*
X98937676Y-99467200D01*
X98937676Y-99467200D02*
X98842438Y-99514819D01*
X98842438Y-99514819D02*
X98556724Y-99514819D01*
X98556724Y-99514819D02*
X98461486Y-99467200D01*
X98461486Y-99467200D02*
X98413867Y-99419580D01*
X100518933Y-58677980D02*
X100471314Y-58725600D01*
X100471314Y-58725600D02*
X100328457Y-58773219D01*
X100328457Y-58773219D02*
X100233219Y-58773219D01*
X100233219Y-58773219D02*
X100090362Y-58725600D01*
X100090362Y-58725600D02*
X99995124Y-58630361D01*
X99995124Y-58630361D02*
X99947505Y-58535123D01*
X99947505Y-58535123D02*
X99899886Y-58344647D01*
X99899886Y-58344647D02*
X99899886Y-58201790D01*
X99899886Y-58201790D02*
X99947505Y-58011314D01*
X99947505Y-58011314D02*
X99995124Y-57916076D01*
X99995124Y-57916076D02*
X100090362Y-57820838D01*
X100090362Y-57820838D02*
X100233219Y-57773219D01*
X100233219Y-57773219D02*
X100328457Y-57773219D01*
X100328457Y-57773219D02*
X100471314Y-57820838D01*
X100471314Y-57820838D02*
X100518933Y-57868457D01*
X101376076Y-58106552D02*
X101376076Y-58773219D01*
X101137981Y-57725600D02*
X100899886Y-58439885D01*
X100899886Y-58439885D02*
X101518933Y-58439885D01*
X87590895Y-93864019D02*
X87590895Y-94673542D01*
X87590895Y-94673542D02*
X87638514Y-94768780D01*
X87638514Y-94768780D02*
X87686133Y-94816400D01*
X87686133Y-94816400D02*
X87781371Y-94864019D01*
X87781371Y-94864019D02*
X87971847Y-94864019D01*
X87971847Y-94864019D02*
X88067085Y-94816400D01*
X88067085Y-94816400D02*
X88114704Y-94768780D01*
X88114704Y-94768780D02*
X88162323Y-94673542D01*
X88162323Y-94673542D02*
X88162323Y-93864019D01*
X89162323Y-94864019D02*
X88590895Y-94864019D01*
X88876609Y-94864019D02*
X88876609Y-93864019D01*
X88876609Y-93864019D02*
X88781371Y-94006876D01*
X88781371Y-94006876D02*
X88686133Y-94102114D01*
X88686133Y-94102114D02*
X88590895Y-94149733D01*
D17*
%TO.C,R1*%
X107907200Y-91028200D02*
X108677200Y-91028200D01*
X115987200Y-91028200D02*
X115217200Y-91028200D01*
X108677200Y-89658200D02*
X115217200Y-89658200D01*
X115217200Y-92398200D01*
X108677200Y-92398200D01*
X108677200Y-89658200D01*
%TO.C,R3*%
X107923200Y-94132400D02*
X108693200Y-94132400D01*
X116003200Y-94132400D02*
X115233200Y-94132400D01*
X108693200Y-92762400D02*
X115233200Y-92762400D01*
X115233200Y-95502400D01*
X108693200Y-95502400D01*
X108693200Y-92762400D01*
%TO.C,J2*%
X71822000Y-165608000D02*
X71822000Y-170748000D01*
X71822000Y-165608000D02*
X74482000Y-165608000D01*
X71822000Y-170748000D02*
X74482000Y-170748000D01*
X73152000Y-163008000D02*
X74482000Y-163008000D01*
X74482000Y-163008000D02*
X74482000Y-164338000D01*
X74482000Y-165608000D02*
X74482000Y-170748000D01*
D18*
%TO.C,C2*%
X99685599Y-53791800D02*
X101685601Y-53791800D01*
X99685599Y-56545800D02*
X101685601Y-56545800D01*
X98758936Y-54150260D02*
G75*
G02*
X99685599Y-53791800I926664J-1018541D01*
G01*
X99685600Y-56545800D02*
G75*
G02*
X98758935Y-56187340I1J1377006D01*
G01*
X101685601Y-53791800D02*
G75*
G02*
X102721835Y-54261968I-1J-1377000D01*
G01*
X102721836Y-56075633D02*
G75*
G02*
X101685601Y-56545801I-1036236J906833D01*
G01*
D17*
%TO.C,R4*%
X107923200Y-97129600D02*
X108693200Y-97129600D01*
X116003200Y-97129600D02*
X115233200Y-97129600D01*
X108693200Y-95759600D02*
X115233200Y-95759600D01*
X115233200Y-98499600D01*
X108693200Y-98499600D01*
X108693200Y-95759600D01*
%TO.C,R2*%
X107907200Y-100121400D02*
X108677200Y-100121400D01*
X115987200Y-100121400D02*
X115217200Y-100121400D01*
%TO.C,SW2*%
X106126400Y-75246800D02*
X106126400Y-76746800D01*
X107376400Y-79246800D02*
X111876400Y-79246800D01*
X111876400Y-72746800D02*
X107376400Y-72746800D01*
X113126400Y-76746800D02*
X113126400Y-75246800D01*
%TO.C,SW1*%
X86517600Y-78955200D02*
X86517600Y-80455200D01*
X87767600Y-82955200D02*
X92267600Y-82955200D01*
X92267600Y-76455200D02*
X87767600Y-76455200D01*
X93517600Y-80455200D02*
X93517600Y-78955200D01*
D18*
%TO.C,C1*%
X97247199Y-94533400D02*
X99247201Y-94533400D01*
X97247199Y-97287400D02*
X99247201Y-97287400D01*
X96320536Y-94891860D02*
G75*
G02*
X97247199Y-94533400I926664J-1018541D01*
G01*
X97247200Y-97287400D02*
G75*
G02*
X96320535Y-96928940I1J1377006D01*
G01*
X99247201Y-94533400D02*
G75*
G02*
X100283435Y-95003568I-1J-1377000D01*
G01*
X100283436Y-96817233D02*
G75*
G02*
X99247201Y-97287401I-1036236J906833D01*
G01*
%TO.C,C3*%
X97247199Y-97683000D02*
X99247201Y-97683000D01*
X97247199Y-100437000D02*
X99247201Y-100437000D01*
X96320536Y-98041460D02*
G75*
G02*
X97247199Y-97683000I926664J-1018541D01*
G01*
X97247200Y-100437000D02*
G75*
G02*
X96320535Y-100078540I1J1377006D01*
G01*
X99247201Y-97683000D02*
G75*
G02*
X100283435Y-98153168I-1J-1377000D01*
G01*
X100283436Y-99966833D02*
G75*
G02*
X99247201Y-100437001I-1036236J906833D01*
G01*
%TO.C,C4*%
X99685599Y-56941400D02*
X101685601Y-56941400D01*
X99685599Y-59695400D02*
X101685601Y-59695400D01*
X98758936Y-57299860D02*
G75*
G02*
X99685599Y-56941400I926664J-1018541D01*
G01*
X99685600Y-59695400D02*
G75*
G02*
X98758935Y-59336940I1J1377006D01*
G01*
X101685601Y-56941400D02*
G75*
G02*
X102721835Y-57411568I-1J-1377000D01*
G01*
X102721836Y-59225233D02*
G75*
G02*
X101685601Y-59695401I-1036236J906833D01*
G01*
D17*
%TO.C,SW3*%
X124820800Y-165416800D02*
X124820800Y-166916800D01*
X126070800Y-169416800D02*
X130570800Y-169416800D01*
X130570800Y-162916800D02*
X126070800Y-162916800D01*
X131820800Y-166916800D02*
X131820800Y-165416800D01*
D10*
%TO.C,U1*%
X85032800Y-95533200D02*
X85332800Y-95533200D01*
X85032800Y-95833200D02*
X85032800Y-95533200D01*
X85032800Y-105233200D02*
X85032800Y-105533200D01*
X85032800Y-105533200D02*
X85332800Y-105533200D01*
X91832800Y-95533200D02*
X91532800Y-95533200D01*
X91832800Y-95833200D02*
X91832800Y-95533200D01*
X91832800Y-105233200D02*
X91832800Y-105533200D01*
X91832800Y-105533200D02*
X91532800Y-105533200D01*
%TD*%
%LPC*%
D14*
X107492800Y-52374800D02*
X107486850Y-52367003D01*
X107492800Y-52628800D01*
X93167200Y-52628800D01*
X93167200Y-50444400D01*
X95199200Y-50444400D01*
X106019600Y-50399502D01*
X106019600Y-47193200D01*
X95250000Y-47272495D01*
X95199200Y-50444400D01*
X93167200Y-50444400D01*
X93167200Y-44173695D01*
X107543600Y-44173695D01*
X107492800Y-52374800D01*
G36*
X107492800Y-52374800D02*
G01*
X107486850Y-52367003D01*
X107492800Y-52628800D01*
X93167200Y-52628800D01*
X93167200Y-50444400D01*
X95199200Y-50444400D01*
X106019600Y-50399502D01*
X106019600Y-47193200D01*
X95250000Y-47272495D01*
X95199200Y-50444400D01*
X93167200Y-50444400D01*
X93167200Y-44173695D01*
X107543600Y-44173695D01*
X107492800Y-52374800D01*
G37*
D10*
X109219989Y-44157429D02*
X119027589Y-44157429D01*
X119027589Y-52615629D01*
X109219989Y-52615629D01*
X109219989Y-44157429D01*
G36*
X109219989Y-44157429D02*
G01*
X119027589Y-44157429D01*
X119027589Y-52615629D01*
X109219989Y-52615629D01*
X109219989Y-44157429D01*
G37*
X81029189Y-44170129D02*
X91036789Y-44170129D01*
X91036789Y-52628329D01*
X81029189Y-52628329D01*
X81029189Y-44170129D01*
G36*
X81029189Y-44170129D02*
G01*
X91036789Y-44170129D01*
X91036789Y-52628329D01*
X81029189Y-52628329D01*
X81029189Y-44170129D01*
G37*
D19*
%TO.C,S1*%
X116554000Y-122377200D03*
X114554000Y-122377200D03*
D20*
X112554000Y-122377200D03*
D21*
X118654000Y-122377200D03*
X110454000Y-122377200D03*
%TD*%
D22*
%TO.C,BAT1*%
X102400000Y-127978000D03*
D23*
X89700000Y-127978000D03*
D24*
X89700000Y-151698000D03*
X113700000Y-151698000D03*
%TD*%
D25*
%TO.C,R1*%
X106867200Y-91028200D03*
X117027200Y-91028200D03*
%TD*%
%TO.C,R3*%
X106883200Y-94132400D03*
X117043200Y-94132400D03*
%TD*%
D26*
%TO.C,J2*%
X73152000Y-164338000D03*
D27*
X73152000Y-166878000D03*
X73152000Y-169418000D03*
%TD*%
D28*
%TO.C,C2*%
X98185600Y-55168800D03*
D29*
X103185600Y-55168800D03*
%TD*%
D25*
%TO.C,R4*%
X106883200Y-97129600D03*
X117043200Y-97129600D03*
%TD*%
%TO.C,R2*%
X106867200Y-100121400D03*
X117027200Y-100121400D03*
%TD*%
D30*
%TO.C,SW2*%
X106376400Y-73746800D03*
X112876400Y-73746800D03*
X106376400Y-78246800D03*
X112876400Y-78246800D03*
%TD*%
%TO.C,SW1*%
X86767600Y-77455200D03*
X93267600Y-77455200D03*
X86767600Y-81955200D03*
X93267600Y-81955200D03*
%TD*%
D28*
%TO.C,C1*%
X95747200Y-95910400D03*
D29*
X100747200Y-95910400D03*
%TD*%
D28*
%TO.C,C3*%
X95747200Y-99060000D03*
D29*
X100747200Y-99060000D03*
%TD*%
D31*
%TO.C,LED1*%
X96747000Y-48813000D03*
D25*
X99287000Y-48813000D03*
X101827000Y-48813000D03*
X104367000Y-48813000D03*
%TD*%
D28*
%TO.C,C4*%
X98185600Y-58318400D03*
D29*
X103185600Y-58318400D03*
%TD*%
D30*
%TO.C,SW3*%
X125070800Y-163916800D03*
X131570800Y-163916800D03*
X125070800Y-168416800D03*
X131570800Y-168416800D03*
%TD*%
D31*
%TO.C,U1*%
X84632800Y-96733200D03*
D25*
X84632800Y-99273200D03*
X84632800Y-101813200D03*
X84632800Y-104353200D03*
X92252800Y-104353200D03*
X92252800Y-101813200D03*
X92252800Y-99273200D03*
X92252800Y-96733200D03*
%TD*%
D32*
%TO.C,D1*%
X89656800Y-122732800D03*
X98856800Y-122732800D03*
%TD*%
%LPD*%
M02*
